<svg width="479" height="358" viewBox="0 0 479 358" fill="none" xmlns="http://www.w3.org/2000/svg">
<path d="M299.224 124.337C299.224 118.13 294.899 113.765 288.836 113.765C281.118 113.765 275.945 119.372 275.945 127.38C275.945 133.628 280.312 137.952 286.478 137.952C292.085 137.952 296.265 135.242 297.982 130.917H291.754C290.926 132.263 289.167 133.111 287.016 133.111C283.705 133.111 281.636 130.917 281.449 127.813H298.873C299.1 126.635 299.224 125.621 299.224 124.337ZM281.926 123.613C282.484 120.758 285.258 118.482 288.609 118.482C291.506 118.482 293.699 120.592 293.699 123.614H281.926V123.613ZM259.206 137.393L260.324 131.435C263.738 132.118 264.255 130.193 265.145 125.559L265.579 123.261C266.82 116.785 269.324 113.557 276.484 114.427L275.365 120.386C271.951 119.703 271.352 122.289 270.587 126.303L270.152 128.6C268.91 135.159 266.323 138.263 259.207 137.394L259.206 137.393ZM250.847 137.415L255.068 114.323H260.634L256.433 137.415H250.847ZM218.961 114.323H224.362L226.121 131.021L233.197 114.323H238.556L240.44 131.187L247.268 114.323H252.648L242.861 137.415H236.737L234.749 121.523L227.984 137.416H222.066L218.961 114.323Z" fill="#7D91C3"/>
<path d="M198.786 120.447L192.373 126.572H203.276L204.414 123.904H198.89L202.345 120.447L200.339 116.992H209.712L201.062 137.415H204.311L214.098 114.323H195.187L198.786 120.447Z" fill="#7D91C3"/>
<g clip-path="url(#clip0_1_4029)">
<path fill-rule="evenodd" clip-rule="evenodd" d="M212.375 323.733L200.249 347.438H188.859L193.934 337.614H193.706C189.519 343.048 183.273 346.626 174.373 347.438V337.75C174.373 337.75 180.066 337.413 183.414 333.894H174.373V323.733H184.534V332.09L184.762 332.089L188.914 323.733H196.599V332.037L196.827 332.037L201.135 323.733H212.375Z" fill="#7D91C3"/>
<path d="M278.5 344.822H281.771V326.038H278.5V344.822Z" fill="#7D91C3"/>
<path fill-rule="evenodd" clip-rule="evenodd" d="M260.459 344.63C261.17 344.925 261.893 345.073 262.628 345.073C263.843 345.073 264.93 344.778 265.889 344.186C266.848 343.595 267.591 342.78 268.118 341.741C268.646 340.694 268.909 339.507 268.909 338.181C268.909 336.854 268.638 335.667 268.095 334.62C267.551 333.574 266.796 332.762 265.829 332.187C264.862 331.604 263.763 331.316 262.532 331.324C261.749 331.324 260.998 331.476 260.279 331.779C259.56 332.083 258.96 332.515 258.481 333.074C258.444 333.117 258.408 333.16 258.373 333.203V326.05H255.088V344.822H258.349L258.342 343.068C258.427 343.171 258.517 343.272 258.613 343.371C259.132 343.907 259.747 344.326 260.459 344.63ZM263.815 341.597C263.279 341.925 262.668 342.089 261.981 342.089C261.302 342.089 260.678 341.921 260.111 341.585C259.544 341.241 259.092 340.774 258.756 340.183C258.429 339.591 258.265 338.92 258.265 338.169C258.257 337.417 258.417 336.746 258.744 336.155C259.08 335.555 259.532 335.092 260.099 334.764C260.666 334.429 261.294 334.265 261.981 334.273C262.668 334.265 263.279 334.425 263.815 334.752C264.359 335.072 264.774 335.531 265.062 336.131C265.357 336.722 265.505 337.402 265.505 338.169C265.505 338.936 265.357 339.615 265.062 340.206C264.774 340.798 264.359 341.261 263.815 341.597Z" fill="#7D91C3"/>
<path d="M217.116 327.176H220.856L224.202 339.395L227.761 327.176H230.877L234.737 339.149L237.95 327.176H241.378L236.319 344.822H233.095L229.17 333.125L225.567 344.822H222.306L217.116 327.176Z" fill="#7D91C3"/>
<path fill-rule="evenodd" clip-rule="evenodd" d="M246.901 345.133C245.598 345.141 244.424 344.854 243.377 344.27C242.338 343.679 241.519 342.86 240.919 341.813C240.328 340.766 240.032 339.571 240.032 338.229C240.032 336.926 240.336 335.747 240.943 334.692C241.551 333.638 242.374 332.814 243.413 332.223C244.452 331.632 245.61 331.336 246.889 331.336C248.328 331.336 249.586 331.656 250.665 332.295C251.752 332.934 252.563 333.841 253.098 335.016C253.642 336.183 253.838 337.521 253.686 339.032H243.418C243.447 339.634 243.597 340.181 243.868 340.674C244.172 341.217 244.596 341.641 245.139 341.945C245.682 342.248 246.29 342.4 246.961 342.4C247.472 342.392 247.948 342.304 248.387 342.137C248.827 341.961 249.199 341.725 249.502 341.429C249.814 341.134 250.034 340.798 250.162 340.422H253.59C253.382 341.341 252.967 342.161 252.343 342.88C251.72 343.591 250.937 344.146 249.994 344.546C249.051 344.945 248.02 345.141 246.901 345.133ZM243.88 335.735C243.689 336.069 243.556 336.429 243.482 336.814H250.289C250.239 336.327 250.089 335.884 249.838 335.484C249.55 335.012 249.159 334.649 248.663 334.393C248.168 334.129 247.608 333.997 246.985 333.997C246.322 333.997 245.718 334.149 245.175 334.453C244.631 334.756 244.2 335.184 243.88 335.735Z" fill="#7D91C3"/>
<path d="M271.319 331.612C271.319 330.541 271.563 329.59 272.05 328.759C272.538 327.92 273.221 327.268 274.1 326.805C274.987 326.333 276.022 326.09 277.205 326.074V328.986C276.653 328.994 276.182 329.11 275.79 329.334C275.406 329.55 275.111 329.866 274.903 330.281C274.712 330.664 274.609 331.107 274.593 331.612H277.133V334.381H274.592V344.822H271.319V334.381H269.209V331.612H271.319Z" fill="#7D91C3"/>
<path fill-rule="evenodd" clip-rule="evenodd" d="M290.091 345.109C288.756 345.109 287.561 344.818 286.507 344.234C285.46 343.643 284.637 342.828 284.037 341.789C283.446 340.742 283.15 339.555 283.15 338.229C283.15 336.894 283.446 335.703 284.037 334.656C284.637 333.602 285.46 332.782 286.507 332.199C287.561 331.616 288.756 331.324 290.091 331.324C291.433 331.324 292.632 331.616 293.687 332.199C294.75 332.782 295.577 333.598 296.169 334.644C296.759 335.691 297.06 336.886 297.067 338.229C297.06 339.555 296.759 340.742 296.169 341.789C295.585 342.828 294.762 343.643 293.699 344.234C292.636 344.818 291.433 345.109 290.091 345.109ZM290.091 342.101C290.794 342.101 291.417 341.941 291.961 341.621C292.504 341.293 292.924 340.838 293.219 340.254C293.515 339.663 293.663 338.988 293.663 338.229C293.663 337.461 293.515 336.782 293.219 336.191C292.924 335.599 292.504 335.144 291.961 334.824C291.417 334.497 290.794 334.333 290.091 334.333C289.396 334.333 288.776 334.497 288.233 334.824C287.698 335.144 287.282 335.599 286.986 336.191C286.691 336.782 286.547 337.461 286.554 338.229C286.554 338.988 286.702 339.663 286.998 340.254C287.302 340.838 287.717 341.293 288.245 341.621C288.78 341.941 289.396 342.101 290.091 342.101Z" fill="#7D91C3"/>
<path d="M300.603 331.612H296.959L300.903 344.822H304.092L306.686 336.385L309.486 344.822H312.627L316.583 331.612H313.287L311.043 339.834L308.564 331.612H305.374L302.907 340.015L300.603 331.612Z" fill="#7D91C3"/>
</g>
<g clip-path="url(#clip1_1_4029)">
<mask id="mask0_1_4029" style="mask-type:luminance" maskUnits="userSpaceOnUse" x="183" y="212" width="125" height="30">
<path d="M308 212H183V241.972H308V212Z" fill="white"/>
</mask>
<g mask="url(#mask0_1_4029)">
<path d="M255.5 227.949C255.5 224.99 254.233 222.374 249.948 222.374C247.75 222.374 246.003 223.001 245.056 223.549L245.75 225.924C246.622 225.377 248.013 224.927 249.326 224.927C251.495 224.924 251.851 226.151 251.851 226.94V227.13C247.115 227.122 244.122 228.758 244.122 232.091C244.122 234.127 245.642 236.035 248.298 236.035C249.919 236.035 251.289 235.381 252.107 234.349H252.186C252.186 234.349 252.726 236.605 255.709 235.743C255.557 234.798 255.5 233.802 255.5 232.591V227.949ZM251.967 231.075C251.967 231.314 251.947 231.562 251.877 231.775C251.604 232.686 250.664 233.449 249.493 233.449C248.505 233.449 247.73 232.89 247.73 231.718C247.73 229.926 249.709 229.432 251.967 229.445" fill="#7D91C3"/>
<path d="M183 218.347C183 218.347 186.093 231.002 186.585 233.052C187.164 235.448 188.201 236.333 191.195 235.743L193.128 227.896C193.617 225.952 193.949 224.558 194.265 222.577H194.319C194.538 224.578 194.853 225.952 195.253 227.903C195.253 227.903 196.042 231.468 196.451 233.335C196.849 235.203 197.971 236.381 200.908 235.743L205.51 218.347H201.795L200.215 225.873C199.797 228.053 199.417 229.77 199.122 231.768H199.068C198.801 229.792 198.463 228.145 198.028 226.009L196.391 218.347H192.515L190.769 225.813C190.271 228.093 189.805 229.92 189.513 231.855H189.462C189.16 230.04 188.751 227.728 188.318 225.534C188.318 225.534 187.28 220.189 186.914 218.347" fill="#7D91C3"/>
<path d="M215.864 227.949C215.864 224.99 214.594 222.374 210.309 222.374C208.116 222.374 206.367 223.001 205.42 223.549L206.114 225.924C206.982 225.377 208.372 224.927 209.69 224.927C211.859 224.924 212.214 226.151 212.214 226.94V227.13C207.479 227.122 204.482 228.758 204.482 232.091C204.482 234.127 206.008 236.035 208.652 236.035C210.289 236.035 211.646 235.381 212.464 234.349H212.547C212.547 234.349 213.089 236.605 216.069 235.743C215.916 234.798 215.864 233.802 215.864 232.591V227.949ZM212.328 231.075C212.328 231.314 212.308 231.562 212.24 231.775C211.965 232.686 211.024 233.449 209.851 233.449C208.868 233.449 208.09 232.89 208.09 231.718C208.09 229.926 210.07 229.432 212.328 229.445" fill="#7D91C3"/>
<path d="M217.792 218.347V235.737H221.328V232.05V218.347H217.792Z" fill="#7D91C3"/>
<path d="M266.352 218.347V231.178C266.352 232.949 266.685 234.184 267.4 234.941C268.028 235.604 269.056 236.036 270.28 236.036C271.331 236.036 272.359 235.834 272.845 235.658L272.802 232.895C272.439 232.98 272.024 233.052 271.454 233.052C270.247 233.052 269.848 232.287 269.848 230.697V225.785H272.928V222.462H269.848V218.347" fill="#7D91C3"/>
<path d="M257.213 222.676V235.743H260.869V229.051C260.869 228.691 260.892 228.38 260.948 228.092C261.221 226.681 262.292 225.788 263.835 225.788C264.265 225.788 264.558 225.835 264.883 225.886V222.46C264.61 222.411 264.424 222.385 264.089 222.385C262.721 222.385 261.17 223.254 260.516 225.146H260.426V222.676" fill="#7D91C3"/>
<path d="M223.381 222.676V235.743H226.943V228.074C226.943 227.714 226.982 227.346 227.11 227.014C227.399 226.237 228.118 225.337 229.271 225.337C230.705 225.337 231.382 226.548 231.382 228.294V235.743H234.935V227.982C234.935 227.643 234.983 227.228 235.082 226.928C235.367 226.047 236.145 225.337 237.221 225.337C238.67 225.337 239.372 226.522 239.372 228.581V235.743H242.922V228.038C242.922 223.991 240.863 222.385 238.525 222.385C237.497 222.385 236.679 222.638 235.943 223.092C235.321 223.473 234.776 224.011 234.287 224.714H234.233C233.671 223.308 232.351 222.385 230.625 222.385C228.413 222.385 227.408 223.502 226.817 224.446H226.763V222.676" fill="#7D91C3"/>
<path d="M292.058 222.09C292.756 222.09 293.345 221.725 293.421 221.256L294.114 213.412C294.114 212.636 293.199 212 292.058 212C290.91 212 290.002 212.636 290.002 213.412L290.7 221.256C290.774 221.725 291.359 222.09 292.058 222.09Z" fill="#7D91C3"/>
<path d="M287.809 224.544C288.155 223.932 288.135 223.251 287.761 222.948L281.296 218.427C280.624 218.035 279.617 218.502 279.041 219.492C278.467 220.48 278.583 221.589 279.242 221.974L286.399 225.292C286.858 225.464 287.457 225.145 287.809 224.538" fill="#7D91C3"/>
<path d="M296.306 224.538C296.672 225.145 297.271 225.463 297.717 225.301L304.875 221.973C305.539 221.581 305.639 220.483 305.077 219.495C304.502 218.505 303.49 218.041 302.819 218.425L296.352 222.942C295.993 223.25 295.967 223.933 296.314 224.544" fill="#7D91C3"/>
<path d="M292.058 231.888C292.756 231.888 293.345 232.253 293.421 232.721L294.114 240.565C294.114 241.342 293.199 241.972 292.058 241.972C290.91 241.972 290.002 241.342 290.002 240.565L290.7 232.721C290.774 232.253 291.359 231.888 292.058 231.888Z" fill="#7D91C3"/>
<path d="M296.306 229.441C296.672 228.832 297.271 228.508 297.717 228.684L304.875 232.005C305.539 232.39 305.639 233.497 305.077 234.487C304.502 235.469 303.49 235.936 302.819 235.552L296.352 231.029C295.993 230.724 295.967 230.044 296.314 229.441" fill="#7D91C3"/>
<path d="M287.809 229.434C288.155 230.045 288.135 230.724 287.761 231.03L281.296 235.545C280.624 235.937 279.617 235.468 279.041 234.486C278.467 233.498 278.583 232.389 279.242 232.004L286.399 228.683C286.858 228.508 287.457 228.83 287.809 229.434Z" fill="#7D91C3"/>
<path d="M306.969 234.863H307.058C307.179 234.863 307.228 234.902 307.242 234.998C307.268 235.105 307.281 235.177 307.307 235.208H307.537C307.517 235.185 307.491 235.127 307.477 234.992C307.451 234.876 307.392 234.81 307.307 234.787V234.765C307.424 234.739 307.491 234.661 307.491 234.565C307.491 234.477 307.451 234.414 307.412 234.375C307.335 234.338 307.261 234.309 307.099 234.309C306.955 234.309 306.849 234.321 306.765 234.341V235.208H306.969V234.863ZM306.975 234.468L307.079 234.454C307.202 234.454 307.268 234.511 307.268 234.591C307.268 234.68 307.179 234.721 307.065 234.721H306.975V234.468ZM307.105 233.88C306.603 233.88 306.204 234.272 306.204 234.753C306.204 235.246 306.603 235.639 307.105 235.639C307.614 235.639 308 235.246 308 234.753C308 234.272 307.614 233.88 307.105 233.88ZM307.105 234.056C307.491 234.056 307.778 234.369 307.778 234.753C307.778 235.141 307.491 235.462 307.105 235.456C306.719 235.456 306.426 235.141 306.426 234.753C306.426 234.369 306.719 234.056 307.099 234.056" fill="#7D91C3"/>
</g>
</g>
<g clip-path="url(#clip2_1_4029)">
<mask id="mask1_1_4029" style="mask-type:luminance" maskUnits="userSpaceOnUse" x="180" y="0" width="133" height="44">
<path d="M312.578 0H180.373V43.7647H312.578V0Z" fill="white"/>
</mask>
<g mask="url(#mask1_1_4029)">
<path d="M190.248 11.6165C195.69 11.6165 200.123 16.0493 200.123 21.5355C200.123 27.0217 195.69 31.4545 190.248 31.4545C184.805 31.4545 180.373 27.0656 180.373 21.5355C180.373 16.0055 184.805 11.6165 190.248 11.6165ZM267.669 11.3971V28.7773C267.669 30.094 268.195 30.4451 269.205 30.7084L269.249 30.9279H263.675V28.7773C263.016 30.3573 261.656 31.3229 259.9 31.3229C256.916 31.3229 254.941 28.6017 254.941 24.5639C254.941 22.2816 255.599 20.3505 256.828 18.9022C258.013 17.4977 259.637 16.7516 261.436 16.7516C262.314 16.7516 263.06 16.9271 263.675 17.3222V14.9521C263.675 14.4254 263.543 14.0743 263.28 13.811C262.928 13.5038 262.358 13.3721 261.48 13.4598H261.436V13.2404L267.669 11.3971ZM288.823 16.7954V28.7773C288.823 30.094 289.35 30.4451 290.36 30.7084V30.9279H284.785V28.7334C284.127 30.3134 282.679 31.3229 281.055 31.3229C279.124 31.3229 277.895 30.445 277.412 28.7334L277.324 28.2944C277.237 27.8556 277.193 27.4167 277.193 26.9778V20.57C277.193 19.1655 276.886 18.7266 275.657 18.6388H275.613V18.4194L281.186 16.7954V26.89C281.186 28.3822 281.845 29.2161 283.074 29.2161C283.82 29.2161 284.434 28.8212 284.785 28.1628V20.57C284.785 19.1216 284.523 18.6827 283.512 18.5949H283.469V18.3754L288.823 16.7954ZM248.577 16.7516C250.069 16.7516 251.517 17.2782 252.483 18.1999C253.58 19.2533 254.151 20.7894 254.195 22.8083V22.8522H245.812C245.636 25.7489 247.436 28.1189 249.806 28.2067C251.517 28.3384 253.009 27.285 253.843 25.5734L254.063 25.6611C253.58 28.865 251.693 31.2789 248.401 31.2789C244.671 31.2789 242.564 28.1628 242.476 24.2567V23.2472C242.652 21.5355 243.178 19.9994 244.1 18.8582C244.671 18.1561 245.329 17.6293 246.119 17.2782C246.777 16.9271 247.743 16.7516 248.533 16.7516H248.577ZM306.642 16.7954C309.013 16.7954 310.46 18.2877 310.46 20.8333V28.9967C310.46 29.9622 310.9 30.4451 311.997 30.7084H312.04V30.9279H306.423V20.9649C306.423 19.3849 305.852 18.5949 304.667 18.5949C303.701 18.5949 303.219 19.2971 302.956 19.9116C302.999 20.2188 303.043 20.526 303.043 20.8333V29.1283C303.043 30.1378 303.35 30.489 304.228 30.7084H304.272V30.9279H299.05V20.9649C299.05 19.3849 298.435 18.5949 297.294 18.5949C296.372 18.5949 295.889 19.2533 295.67 19.7799V29.1723C295.67 30.1817 295.977 30.5328 296.855 30.7523H296.899V30.9717H291.676V20.526C291.676 19.1216 291.325 18.6827 290.14 18.5949H290.096V18.3754L295.67 16.8394V19.1655C296.241 17.6733 297.557 16.7954 299.225 16.7954C301.112 16.7954 302.429 17.7171 302.868 19.3849C303.438 17.8049 304.887 16.7954 306.642 16.7954ZM226.588 12.2748L231.811 24.52L237.034 12.2748H242.652L242.608 12.4943L242.544 12.5085C241.576 12.7291 241.072 13.091 241.072 14.2937V29.2161C241.159 30.1817 241.686 30.489 242.608 30.7084H242.652V30.9279H235.498V30.7084H235.542C236.463 30.489 236.99 30.1817 237.078 29.2161V14.6888L230.187 30.8839H229.792L223.077 15.1276V28.865C223.077 30.094 223.604 30.4451 224.613 30.6645H224.657V30.8839H220.531V30.6645H220.575C221.585 30.4451 222.111 30.094 222.111 28.865V14.2937C222.111 13.0649 221.585 12.7137 220.575 12.4943H220.531V12.2748H226.588ZM274.471 16.7954V28.7773L274.472 28.8583C274.494 30.1086 275.019 30.4506 276.008 30.7084L276.051 30.9279H270.478V20.57C270.478 19.1655 270.17 18.7266 268.941 18.6388H268.898V18.4194L274.471 16.7954ZM206.048 12.1871C208.725 12.1871 210.963 16.4005 210.963 21.5355C210.963 26.7144 208.769 30.8839 206.048 30.8839C203.327 30.8839 201.132 26.7144 201.132 21.5355C201.132 16.3566 203.327 12.1871 206.048 12.1871ZM213.597 13.1527C214.606 13.1527 215.352 16.9271 215.352 21.5355C215.352 26.1439 214.562 29.9184 213.597 29.9184C212.641 29.9184 211.857 26.219 211.841 21.6735L211.841 21.5355C211.841 16.9271 212.631 13.1527 213.597 13.1527ZM262.095 17.5415C260.339 17.5415 259.242 19.8677 259.242 23.4666C259.242 25.1783 259.549 26.6706 260.076 27.68C260.559 28.6456 261.261 29.1723 262.051 29.1723C262.841 29.1723 263.411 28.8212 263.675 28.1628V18.5072C263.367 17.8927 262.797 17.5415 262.095 17.5415ZM248.533 17.5855C246.953 17.5855 246.031 19.4727 245.899 22.1061V22.15H250.683C250.771 20.0872 250.42 18.7266 249.762 18.0683C249.411 17.761 249.016 17.5855 248.533 17.5855ZM272.321 11.5287C273.593 11.5287 274.559 12.4943 274.559 13.7671C274.559 15.0399 273.593 16.0055 272.321 16.0055C271.048 16.0055 270.082 15.0399 270.082 13.7671C270.082 12.4943 271.048 11.5287 272.321 11.5287Z" fill="#7D91C3"/>
</g>
</g>
<mask id="mask2_1_4029" style="mask-type:luminance" maskUnits="userSpaceOnUse" x="378" y="116" width="101" height="31">
<path d="M478.516 116.8H378.373V146.979H478.516V116.8Z" fill="white"/>
</mask>
<g mask="url(#mask2_1_4029)">
<path fill-rule="evenodd" clip-rule="evenodd" d="M440.499 140.401C434.68 144.69 426.245 146.979 418.983 146.979C408.799 146.979 399.632 143.213 392.697 136.948C392.152 136.456 392.64 135.784 393.294 136.168C400.779 140.523 410.033 143.143 419.593 143.143C426.04 143.143 433.132 141.809 439.654 139.041C440.639 138.622 441.463 139.686 440.499 140.401Z" fill="#7D91C3"/>
<path fill-rule="evenodd" clip-rule="evenodd" d="M442.919 137.633C442.178 136.682 438.002 137.184 436.127 137.406C435.556 137.476 435.469 136.979 435.983 136.621C439.309 134.28 444.767 134.956 445.403 135.741C446.04 136.53 445.238 142 442.112 144.611C441.633 145.013 441.175 144.799 441.389 144.267C442.091 142.515 443.664 138.587 442.919 137.633Z" fill="#7D91C3"/>
<path fill-rule="evenodd" clip-rule="evenodd" d="M436.258 120.096V117.82C436.258 117.476 436.52 117.245 436.833 117.245H447.021C447.348 117.245 447.609 117.48 447.609 117.82V119.769C447.605 120.096 447.33 120.523 446.842 121.198L441.563 128.735C443.525 128.687 445.595 128.98 447.374 129.982C447.775 130.209 447.884 130.54 447.914 130.867V133.295C447.914 133.626 447.548 134.014 447.165 133.814C444.03 132.17 439.867 131.992 436.402 133.831C436.049 134.023 435.678 133.639 435.678 133.308V131.002C435.678 130.632 435.683 130 436.053 129.437L442.169 120.667H436.846C436.52 120.667 436.258 120.436 436.258 120.096Z" fill="#7D91C3"/>
<path fill-rule="evenodd" clip-rule="evenodd" d="M399.096 134.293H395.997C395.7 134.272 395.465 134.049 395.443 133.766V117.859C395.443 117.541 395.709 117.288 396.04 117.288H398.93C399.231 117.301 399.471 117.532 399.493 117.82V119.899H399.549C400.303 117.89 401.72 116.953 403.629 116.953C405.569 116.953 406.781 117.89 407.653 119.899C408.403 117.89 410.107 116.953 411.934 116.953C413.233 116.953 414.654 117.489 415.521 118.692C416.502 120.03 416.302 121.974 416.302 123.679L416.297 133.718C416.297 134.036 416.031 134.293 415.7 134.293H412.605C412.295 134.272 412.047 134.023 412.047 133.718V125.287C412.047 124.616 412.108 122.942 411.96 122.306C411.729 121.238 411.036 120.937 410.138 120.937C409.388 120.937 408.603 121.438 408.285 122.24C407.967 123.042 407.997 124.385 407.997 125.287V133.718C407.997 134.036 407.731 134.293 407.4 134.293H404.305C403.991 134.272 403.747 134.023 403.747 133.718L403.743 125.287C403.743 123.513 404.035 120.902 401.834 120.902C399.606 120.902 399.693 123.448 399.693 125.287V133.718C399.693 134.036 399.427 134.293 399.096 134.293Z" fill="#7D91C3"/>
<path fill-rule="evenodd" clip-rule="evenodd" d="M456.38 116.953C460.979 116.953 463.468 120.902 463.468 125.924C463.468 130.776 460.717 134.625 456.38 134.625C451.864 134.625 449.405 130.675 449.405 125.754C449.405 120.802 451.894 116.953 456.38 116.953ZM456.406 120.2C454.122 120.2 453.978 123.313 453.978 125.252C453.978 127.197 453.947 131.347 456.38 131.347C458.782 131.347 458.895 127.999 458.895 125.959C458.895 124.616 458.838 123.012 458.433 121.739C458.084 120.632 457.391 120.2 456.406 120.2Z" fill="#7D91C3"/>
<path fill-rule="evenodd" clip-rule="evenodd" d="M469.431 134.293H466.345C466.035 134.272 465.787 134.023 465.787 133.718L465.783 117.807C465.809 117.515 466.066 117.288 466.38 117.288H469.252C469.523 117.301 469.745 117.484 469.806 117.733V120.165H469.863C470.73 117.99 471.946 116.953 474.087 116.953C475.477 116.953 476.833 117.454 477.705 118.827C478.516 120.1 478.516 122.24 478.516 123.779V133.792C478.481 134.071 478.224 134.293 477.919 134.293H474.81C474.527 134.272 474.292 134.062 474.261 133.792V125.152C474.261 123.413 474.462 120.867 472.321 120.867C471.567 120.867 470.874 121.373 470.53 122.14C470.094 123.112 470.037 124.08 470.037 125.152V133.718C470.033 134.036 469.763 134.293 469.431 134.293Z" fill="#7D91C3"/>
<path fill-rule="evenodd" clip-rule="evenodd" d="M428.137 126.695C428.137 127.903 428.167 128.91 427.557 129.982C427.065 130.854 426.28 131.39 425.412 131.39C424.222 131.39 423.525 130.483 423.525 129.145C423.525 126.504 425.892 126.024 428.137 126.024V126.695ZM431.262 134.25C431.058 134.433 430.761 134.446 430.53 134.324C429.501 133.47 429.314 133.073 428.751 132.258C427.051 133.993 425.844 134.511 423.642 134.511C421.031 134.511 419.004 132.903 419.004 129.681C419.004 127.166 420.365 125.453 422.309 124.616C423.991 123.875 426.341 123.744 428.137 123.539V123.138C428.137 122.402 428.194 121.53 427.758 120.893C427.383 120.322 426.659 120.087 426.018 120.087C424.837 120.087 423.786 120.693 423.529 121.948C423.477 122.227 423.272 122.502 422.989 122.515L419.985 122.192C419.732 122.136 419.449 121.931 419.523 121.543C420.212 117.899 423.507 116.8 426.454 116.8C427.962 116.8 429.933 117.201 431.123 118.343C432.631 119.751 432.487 121.63 432.487 123.674V128.504C432.487 129.956 433.089 130.592 433.655 131.377C433.852 131.656 433.895 131.992 433.642 132.201C433.01 132.728 431.886 133.709 431.267 134.259L431.262 134.25Z" fill="#7D91C3"/>
<path fill-rule="evenodd" clip-rule="evenodd" d="M387.505 126.696C387.505 127.903 387.536 128.91 386.925 129.982C386.433 130.854 385.652 131.39 384.781 131.39C383.59 131.39 382.897 130.484 382.897 129.145C382.897 126.504 385.264 126.024 387.505 126.024V126.696ZM390.631 134.25C390.426 134.433 390.129 134.446 389.898 134.324C388.869 133.47 388.686 133.073 388.12 132.258C386.42 133.993 385.216 134.512 383.011 134.512C380.404 134.512 378.373 132.903 378.373 129.682C378.373 127.166 379.737 125.453 381.677 124.616C383.359 123.875 385.709 123.744 387.505 123.54V123.139C387.505 122.402 387.562 121.53 387.13 120.894C386.751 120.322 386.027 120.087 385.391 120.087C384.209 120.087 383.155 120.693 382.897 121.948C382.845 122.227 382.64 122.502 382.361 122.515L379.353 122.193C379.101 122.136 378.822 121.931 378.891 121.543C379.584 117.899 382.876 116.8 385.822 116.8C387.331 116.8 389.301 117.201 390.491 118.343C391.999 119.751 391.855 121.63 391.855 123.675V128.505C391.855 129.956 392.457 130.593 393.024 131.377C393.224 131.656 393.268 131.992 393.015 132.201C392.383 132.729 391.258 133.71 390.639 134.259L390.631 134.25Z" fill="#7D91C3"/>
</g>
<path d="M401.543 29.5637L402.949 26.2982C404.468 27.4321 406.486 28.0217 408.482 28.0217C409.956 28.0217 410.886 27.4547 410.886 26.593C410.863 24.1892 402.064 26.0714 401.996 20.0393C401.974 16.9779 404.695 14.6195 408.55 14.6195C410.84 14.6195 413.131 15.1864 414.764 16.479L413.448 19.8125C411.952 18.8601 410.092 18.1798 408.323 18.1798C407.121 18.1798 406.328 18.7467 406.328 19.4724C406.35 21.8308 415.217 20.5382 415.308 26.2982C415.308 29.4277 412.655 31.6273 408.845 31.6273C406.055 31.6273 403.493 30.9697 401.543 29.5637ZM455.492 25.119C454.789 26.3436 453.473 27.1827 451.954 27.1827C449.709 27.1827 447.895 25.3685 447.895 23.1234C447.895 20.8784 449.709 19.0642 451.954 19.0642C453.473 19.0642 454.789 19.9033 455.492 21.1278L459.369 18.9735C457.918 16.3883 455.129 14.6195 451.954 14.6195C447.26 14.6195 443.45 18.4292 443.45 23.1234C443.45 27.8177 447.26 31.6273 451.954 31.6273C455.152 31.6273 457.918 29.8813 459.369 27.2733L455.492 25.119ZM417.258 7.56686H422.111V31.3099H417.258V7.56686ZM461.274 7.56686V31.3099H466.127V24.1892L471.887 31.3099H478.101L470.776 22.8513L477.557 14.9596H471.615L466.127 21.5133V7.56686H461.274ZM436.534 25.1644C435.831 26.3209 434.379 27.1827 432.746 27.1827C430.501 27.1827 428.687 25.3685 428.687 23.1234C428.687 20.8784 430.501 19.0642 432.746 19.0642C434.379 19.0642 435.831 19.9713 436.534 21.1505V25.1644ZM436.534 14.9596V16.8872C435.74 15.5492 433.767 14.6195 431.703 14.6195C427.44 14.6195 424.084 18.3839 424.084 23.1007C424.084 27.8177 427.44 31.6273 431.703 31.6273C433.767 31.6273 435.74 30.6977 436.534 29.3597V31.2873H441.387V14.9596H436.534Z" fill="#7D91C3"/>
<path d="M371.541 25.1414C371.541 26.7968 370.203 28.1347 368.547 28.1347C366.892 28.1347 365.554 26.7968 365.554 25.1414C365.554 23.4859 366.892 22.148 368.547 22.148H371.541V25.1414ZM373.037 25.1414C373.037 23.4859 374.375 22.148 376.031 22.148C377.686 22.148 379.024 23.4859 379.024 25.1414V32.6247C379.024 34.2803 377.686 35.6181 376.031 35.6181C374.375 35.6181 373.037 34.2803 373.037 32.6247V25.1414Z" fill="#7D91C3"/>
<path d="M376.031 13.1226C374.375 13.1226 373.038 11.7847 373.038 10.1292C373.038 8.47379 374.375 7.13583 376.031 7.13583C377.686 7.13583 379.024 8.47379 379.024 10.1292V13.1226H376.031ZM376.031 14.642C377.686 14.642 379.024 15.9799 379.024 17.6354C379.024 19.2908 377.686 20.6288 376.031 20.6288H368.525C366.869 20.6288 365.531 19.2908 365.531 17.6354C365.531 15.9799 366.869 14.642 368.525 14.642H376.031Z" fill="#7D91C3"/>
<path d="M388.027 17.6354C388.027 15.9799 389.365 14.642 391.021 14.642C392.676 14.642 394.014 15.9799 394.014 17.6354C394.014 19.2908 392.676 20.6288 391.021 20.6288H388.027V17.6354ZM386.53 17.6354C386.53 19.2908 385.193 20.6288 383.537 20.6288C381.882 20.6288 380.544 19.2908 380.544 17.6354V10.1292C380.544 8.47379 381.882 7.13583 383.537 7.13583C385.193 7.13583 386.53 8.47379 386.53 10.1292V17.6354Z" fill="#7D91C3"/>
<path d="M383.537 29.6315C385.193 29.6315 386.53 30.9693 386.53 32.6247C386.53 34.2803 385.193 35.6181 383.537 35.6181C381.882 35.6181 380.544 34.2803 380.544 32.6247V29.6315H383.537ZM383.537 28.1347C381.882 28.1347 380.544 26.7968 380.544 25.1414C380.544 23.4859 381.882 22.148 383.537 22.148H391.043C392.699 22.148 394.037 23.4859 394.037 25.1414C394.037 26.7968 392.699 28.1347 391.043 28.1347H383.537Z" fill="#7D91C3"/>
<g clip-path="url(#clip3_1_4029)">
<path d="M409.344 346.678V334.703H409.557L418.274 346.678H421.018V329.092H417.97V341.038H417.756L409.039 329.092H406.296V346.678H409.344ZM429.643 346.95C433.666 346.95 436.135 344.356 436.135 340.012C436.135 335.698 433.666 333.074 429.643 333.074C425.65 333.074 423.151 335.698 423.151 340.012C423.182 344.356 425.62 346.95 429.643 346.95ZM429.643 344.416C427.51 344.416 426.29 342.817 426.29 340.012C426.29 337.237 427.51 335.608 429.643 335.608C431.777 335.608 432.996 337.237 432.996 340.012C432.996 342.817 431.777 344.416 429.643 344.416ZM438.909 330.088V333.436H436.775V335.849H438.909V343.119C438.909 345.713 440.128 346.739 443.237 346.739C443.816 346.739 444.395 346.678 444.852 346.588V344.235C444.486 344.265 444.242 344.295 443.816 344.295C442.536 344.295 441.957 343.722 441.957 342.395V335.849H444.852V333.436H441.957V330.088H438.909ZM446.681 346.678H449.729V333.346H446.681V346.678ZM448.205 331.144C449.211 331.144 450.033 330.329 450.033 329.334C450.033 328.308 449.211 327.494 448.205 327.494C447.199 327.494 446.376 328.308 446.376 329.334C446.376 330.329 447.199 331.144 448.205 331.144ZM458.079 346.95C462.103 346.95 464.572 344.356 464.572 340.012C464.572 335.698 462.103 333.074 458.079 333.074C454.087 333.074 451.588 335.698 451.588 340.012C451.588 344.356 454.026 346.95 458.079 346.95ZM458.079 344.416C455.946 344.416 454.728 342.817 454.728 340.012C454.728 337.237 455.946 335.608 458.079 335.608C460.183 335.608 461.432 337.237 461.432 340.012C461.402 342.817 460.183 344.416 458.079 344.416ZM466.37 346.678H469.418V338.926C469.418 336.965 470.576 335.729 472.374 335.729C474.234 335.729 475.087 336.754 475.087 338.775V346.678H478.135V338.051C478.135 334.854 476.489 333.074 473.502 333.074C471.491 333.074 470.149 333.979 469.509 335.487H469.296V333.346H466.339C466.37 333.346 466.37 346.678 466.37 346.678Z" fill="#7D91C3"/>
<path fill-rule="evenodd" clip-rule="evenodd" d="M377.072 327.967C377.959 328.682 378.28 328.626 379.941 328.513L395.588 327.571C395.928 327.571 395.645 327.232 395.531 327.194L392.927 325.33C392.436 324.953 391.756 324.501 390.492 324.614L375.355 325.726C374.807 325.782 374.694 326.065 374.921 326.272L377.072 327.967ZM378.016 331.601V348.023C378.016 348.909 378.45 349.229 379.45 349.172L396.645 348.174C397.645 348.118 397.758 347.515 397.758 346.799V330.49C397.758 329.775 397.475 329.379 396.871 329.436L378.903 330.49C378.242 330.547 378.016 330.886 378.016 331.601ZM394.984 332.487C395.097 332.976 394.984 333.485 394.493 333.541L393.663 333.711V345.839C392.946 346.216 392.285 346.441 391.719 346.441C390.832 346.441 390.605 346.159 389.944 345.33L384.528 336.837V345.048L386.245 345.425C386.245 345.425 386.245 346.423 384.867 346.423L381.055 346.649C380.942 346.423 381.055 345.877 381.432 345.764L382.433 345.481V334.633L381.055 334.52C380.942 334.031 381.225 333.315 381.998 333.259L386.094 332.976L391.738 341.564V333.974L390.303 333.805C390.19 333.202 390.643 332.75 391.19 332.694L394.984 332.487ZM374.09 324.219L389.85 323.07C391.775 322.901 392.285 323.014 393.493 323.899L398.513 327.42C399.344 328.023 399.627 328.193 399.627 328.852V348.193C399.627 349.398 399.193 350.114 397.645 350.227L379.356 351.338C378.186 351.395 377.638 351.225 377.035 350.453L373.316 345.651C372.656 344.765 372.373 344.106 372.373 343.334V326.14C372.373 325.142 372.826 324.332 374.09 324.219Z" fill="#7D91C3"/>
</g>
<g clip-path="url(#clip4_1_4029)">
<path d="M371.772 220.578H379.476C384.394 220.578 387.508 224.512 387.508 229.921C387.508 232.872 386.524 235.495 384.557 237.134C383.246 238.281 381.443 238.937 379.148 238.937H371.772V220.578ZM378.902 235.74C382.427 235.74 383.738 233.61 383.738 230.003C383.738 226.397 382.181 223.856 378.984 223.856H375.46V235.822H378.902V235.74ZM388.082 232.38C388.082 228.446 390.868 225.414 394.966 225.414C399.064 225.414 401.85 228.446 401.85 232.38C401.85 236.314 399.064 239.347 394.966 239.347C390.868 239.347 388.082 236.232 388.082 232.38ZM398.244 232.38C398.244 229.839 397.015 228.036 394.884 228.036C392.753 228.036 391.524 229.758 391.524 232.38C391.524 235.003 392.671 236.642 394.884 236.642C397.097 236.642 398.244 234.921 398.244 232.38ZM402.506 232.38C402.506 228.446 405.047 225.414 409.063 225.414C412.505 225.414 414.554 227.381 415.046 230.249H411.603C411.358 229.102 410.456 228.2 409.227 228.2C407.096 228.2 406.03 229.839 406.03 232.38C406.03 234.839 407.014 236.56 409.145 236.56C410.538 236.56 411.521 235.822 411.767 234.347H415.209C414.964 237.134 412.833 239.347 409.309 239.347C405.129 239.265 402.506 236.232 402.506 232.38ZM424.389 238.937V237.38H424.307C423.405 238.609 422.422 239.265 420.537 239.265C417.586 239.265 415.947 237.38 415.947 234.511V225.742H419.389V233.937C419.389 235.495 420.045 236.314 421.602 236.314C423.241 236.314 424.225 235.085 424.225 233.364V225.742H427.749V238.855H424.389V238.937ZM444.714 220.66H448.238V223.939H444.714V220.66ZM444.714 225.742H448.238V238.855H444.714V225.742ZM449.632 239.265H453.074C453.319 240.084 454.139 240.74 455.697 240.74C457.663 240.74 458.647 239.756 458.647 238.035V236.56H458.565C457.828 237.461 456.762 238.117 455.123 238.117C452.173 238.117 449.304 235.822 449.304 231.806C449.304 227.872 451.681 225.414 454.959 225.414C456.598 225.414 457.828 226.069 458.565 227.135H458.647V225.742H462.008V237.871C462.008 239.756 461.433 240.986 460.45 241.887C459.384 242.953 457.663 243.362 455.697 243.362C452.255 243.362 450.041 241.887 449.632 239.265ZM458.893 231.725C458.893 229.839 457.827 228.2 455.779 228.2C453.975 228.2 452.828 229.594 452.828 231.806C452.828 234.019 453.975 235.331 455.779 235.331C457.991 235.331 458.893 233.691 458.893 231.725ZM467.007 227.545C467.99 226.151 469.219 225.414 470.94 225.414C473.645 225.414 475.448 227.463 475.448 230.331V238.937H471.923V230.905C471.923 229.512 471.104 228.528 469.629 228.528C468.072 228.528 466.924 229.758 466.924 231.561V239.019H463.565V225.905H467.007V227.545ZM436.764 227.872C434.06 227.299 432.83 226.807 432.83 225.332C432.83 224.021 434.142 223.201 436.109 223.201C437.912 223.201 439.305 224.021 439.633 225.742H443.239C442.829 222.217 440.207 220.25 436.109 220.25C432.011 220.25 429.06 222.135 429.06 225.742C429.06 229.594 432.093 230.413 435.371 231.151C438.158 231.806 439.879 232.134 439.879 233.937C439.879 235.658 438.24 236.314 436.354 236.314C433.732 236.314 432.503 235.412 432.257 233.2H428.651C428.814 237.052 431.601 239.265 436.6 239.265C440.698 239.265 443.731 237.216 443.731 233.446C443.649 229.594 440.534 228.692 436.764 227.872ZM476.923 228.2C476.186 228.2 475.53 227.545 475.53 226.807C475.53 226.069 476.186 225.414 476.923 225.414C477.661 225.414 478.317 226.069 478.317 226.807C478.317 227.545 477.661 228.2 476.923 228.2ZM476.923 225.66C476.268 225.66 475.776 226.151 475.776 226.807C475.776 227.463 476.268 227.954 476.923 227.954C477.579 227.954 478.07 227.463 478.07 226.807C478.07 226.151 477.579 225.66 476.923 225.66Z" fill="#7D91C3"/>
<path d="M476.433 226.07H476.925C477.089 226.07 477.252 226.07 477.334 226.151C477.416 226.233 477.499 226.316 477.499 226.479C477.499 226.725 477.334 226.807 477.252 226.889L477.581 227.463H477.252L477.007 226.971H476.679V227.463H476.433V226.07ZM476.679 226.316V226.725H476.925C477.007 226.725 477.171 226.725 477.171 226.479C477.171 226.479 477.171 226.316 477.089 226.316H476.679Z" fill="#7D91C3"/>
</g>
<path d="M15.0885 211.407C6.78061 211.407 0.0454102 218.142 0.0454102 226.45C0.0454102 234.758 6.78061 241.492 15.0885 241.492C23.3974 241.492 30.1318 234.758 30.1318 226.45C30.1318 218.142 23.3974 211.408 15.0883 211.408L15.0885 211.407ZM21.9871 233.103C21.7178 233.545 21.1394 233.685 20.6974 233.414C17.1655 231.256 12.7191 230.768 7.48281 231.964C6.97822 232.079 6.47524 231.763 6.36027 231.258C6.24478 230.753 6.55966 230.25 7.06551 230.135C12.7958 228.826 17.7112 229.39 21.6763 231.813C22.1183 232.084 22.2585 232.661 21.9871 233.103ZM23.8285 229.007C23.4889 229.559 22.7668 229.733 22.2154 229.394C18.1718 226.908 12.008 226.188 7.2252 227.64C6.60493 227.828 5.9498 227.478 5.76154 226.859C5.57473 226.238 5.92449 225.585 6.54367 225.396C12.0069 223.738 18.7987 224.541 23.4422 227.395C23.9938 227.734 24.168 228.456 23.8285 229.007ZM23.9865 224.742C19.1382 221.862 11.1391 221.597 6.5101 223.002C5.76676 223.228 4.98067 222.808 4.75542 222.065C4.53015 221.321 4.94943 220.535 5.69328 220.309C11.0071 218.696 19.8406 219.008 25.4225 222.322C26.0925 222.719 26.3117 223.582 25.9148 224.25C25.5195 224.918 24.6538 225.139 23.9873 224.742H23.9865ZM40.9728 225.294C38.3751 224.674 37.9135 224.239 37.9135 223.326C37.9135 222.463 38.7255 221.882 39.9344 221.882C41.1057 221.882 42.2661 222.323 43.4839 223.231C43.52 223.259 43.5667 223.27 43.6115 223.262C43.6583 223.256 43.6977 223.231 43.7247 223.193L44.9928 221.405C45.045 221.332 45.0306 221.23 44.9606 221.174C43.5109 220.011 41.8798 219.446 39.9721 219.446C37.168 219.446 35.2083 221.129 35.2083 223.537C35.2083 226.119 36.8987 227.034 39.8195 227.739C42.3038 228.312 42.7242 228.791 42.7242 229.649C42.7242 230.599 41.8763 231.19 40.5111 231.19C38.9949 231.19 37.7573 230.678 36.3741 229.482C36.34 229.451 36.2932 229.438 36.2501 229.44C36.2035 229.444 36.162 229.465 36.1333 229.5L34.7108 231.192C34.6514 231.264 34.6586 231.368 34.7269 231.429C36.3364 232.866 38.3158 233.624 40.4535 233.624C43.4751 233.624 45.4277 231.973 45.4277 229.417C45.4329 227.26 44.1416 226.065 40.978 225.296L40.9728 225.294ZM52.2646 222.732C50.955 222.732 49.8807 223.248 48.9934 224.305V223.115C48.9934 223.021 48.9179 222.945 48.8245 222.945H46.4982C46.4049 222.945 46.3295 223.021 46.3295 223.115V236.337C46.3295 236.43 46.4049 236.507 46.4982 236.507H48.8245C48.9179 236.507 48.9934 236.43 48.9934 236.337V232.164C49.8807 233.157 50.955 233.644 52.2646 233.644C54.6986 233.644 57.1632 231.77 57.1632 228.188C57.1667 224.606 54.7022 222.732 52.2663 222.732L52.2646 222.732ZM54.4578 228.188C54.4578 230.012 53.3351 231.285 51.7256 231.285C50.136 231.285 48.936 229.954 48.936 228.188C48.936 226.423 50.136 225.092 51.7256 225.092C53.3083 225.092 54.4578 226.394 54.4578 228.188ZM63.4772 222.732C60.3426 222.732 57.887 225.146 57.887 228.227C57.887 231.276 60.3265 233.663 63.4395 233.663C66.585 233.663 69.0479 231.258 69.0479 228.188C69.0479 225.129 66.6011 222.732 63.4772 222.732V222.732ZM63.4772 231.303C61.8103 231.303 60.5528 229.963 60.5528 228.188C60.5528 226.404 61.7673 225.11 63.4395 225.11C65.1173 225.11 66.3821 226.449 66.3821 228.226C66.3821 230.01 65.1605 231.303 63.4772 231.303ZM75.741 222.945H73.1811V220.328C73.1811 220.234 73.1056 220.158 73.0124 220.158H70.6861C70.5926 220.158 70.5153 220.234 70.5153 220.328V222.945H69.3981C69.3046 222.945 69.2291 223.021 69.2291 223.115V225.114C69.2291 225.208 69.3046 225.284 69.3981 225.284H70.5153V230.457C70.5153 232.546 71.5554 233.606 73.6086 233.606C74.4421 233.606 75.1339 233.434 75.7859 233.063C75.8397 233.035 75.872 232.977 75.872 232.916V231.012C75.872 230.955 75.8416 230.899 75.7913 230.868C75.741 230.836 75.6781 230.834 75.626 230.861C75.1787 231.086 74.7457 231.19 74.2608 231.19C73.5153 231.19 73.1811 230.85 73.1811 230.092V225.285H75.741C75.8343 225.285 75.9097 225.209 75.9097 225.115V223.116C75.9133 223.022 75.8378 222.946 75.7427 222.946L75.741 222.945ZM84.6579 222.955V222.634C84.6579 221.688 85.0209 221.267 85.8328 221.267C86.3177 221.267 86.7076 221.363 87.1441 221.508C87.198 221.525 87.2537 221.517 87.2969 221.485C87.3417 221.452 87.3669 221.401 87.3669 221.346V219.387C87.3669 219.312 87.3201 219.245 87.2466 219.223C86.7866 219.086 86.1975 218.946 85.3137 218.946C83.167 218.946 82.0299 220.155 82.0299 222.442V222.935H80.9127C80.8192 222.935 80.7418 223.011 80.7418 223.105V225.114C80.7418 225.208 80.8192 225.284 80.9127 225.284H82.0299V233.261C82.0299 233.356 82.1072 233.432 82.2007 233.432H84.5251C84.6202 233.432 84.6957 233.356 84.6957 233.261V225.285H86.8675L90.1942 233.261C89.817 234.098 89.4452 234.265 88.9387 234.265C88.5292 234.265 88.0962 234.143 87.6561 233.901C87.6148 233.879 87.5645 233.876 87.5213 233.888C87.4765 233.904 87.4388 233.936 87.4207 233.98L86.6321 235.709C86.5944 235.792 86.6267 235.887 86.7059 235.93C87.5285 236.376 88.2703 236.566 89.1883 236.566C90.9057 236.566 91.8559 235.765 92.6913 233.613L96.7258 223.188C96.7474 223.135 96.7402 223.076 96.7078 223.029C96.6774 222.983 96.6252 222.955 96.5694 222.955H94.148C94.0745 222.955 94.0097 223.002 93.9865 223.07L91.5055 230.153L88.7895 223.065C88.7643 222.999 88.7014 222.955 88.6314 222.955H84.6579V222.955ZM79.4882 222.945H77.1619C77.0684 222.945 76.9911 223.021 76.9911 223.115V233.261C76.9911 233.356 77.0684 233.432 77.1619 233.432H79.4882C79.5814 233.432 79.6588 233.356 79.6588 233.261V223.116C79.6588 223.022 79.5833 222.945 79.4882 222.945V222.945ZM78.3385 218.325C77.417 218.325 76.6696 219.071 76.6696 219.992C76.6696 220.914 77.417 221.661 78.3385 221.661C79.2599 221.661 80.0054 220.914 80.0054 219.992C80.0054 219.071 79.2583 218.325 78.3385 218.325ZM98.7125 226.207C97.7929 226.207 97.076 225.468 97.076 224.57C97.076 223.673 97.8017 222.925 98.7215 222.925C99.6412 222.925 100.358 223.664 100.358 224.561C100.358 225.459 99.6324 226.207 98.7125 226.207ZM98.7215 223.088C97.8826 223.088 97.2485 223.754 97.2485 224.57C97.2485 225.386 97.8791 226.043 98.7125 226.043C99.5515 226.043 100.186 225.377 100.186 224.561C100.186 223.745 99.555 223.088 98.7215 223.088ZM99.0843 224.729L99.5479 225.377H99.1562L98.7396 224.783H98.382V225.377H98.0551V223.659H98.8203C99.221 223.659 99.4831 223.864 99.4831 224.207C99.485 224.489 99.3216 224.661 99.0862 224.729H99.0843ZM98.8077 223.954H98.382V224.497H98.8077C99.0198 224.497 99.1472 224.393 99.1472 224.225C99.1472 224.049 99.0198 223.954 98.8077 223.954Z" fill="#7D91C3"/>
<path d="M49.7169 119.952H53.7136V132.506H49.7169V119.952Z" fill="#7D91C3"/>
<path d="M54.5482 119.953H58.3976V121.669H58.4712C59.4029 120.32 60.6042 119.585 62.3451 119.585C65.0912 119.585 66.7095 121.546 66.7095 124.341V132.506H62.7129V125.151C62.7129 123.827 62.0509 122.919 60.7515 122.919C59.4274 122.919 58.5447 124.023 58.5447 125.567V132.506H54.5482V119.953Z" fill="#7D91C3"/>
<path d="M54.1124 116.594C54.1124 115.27 53.0392 114.196 51.7151 114.196C50.391 114.196 49.3178 115.27 49.3178 116.594C49.3178 117.918 50.391 118.991 51.7151 118.991C53.0392 118.991 54.1124 117.918 54.1124 116.594Z" fill="#7D91C3"/>
<path d="M94.8183 119.771C94.7043 119.761 94.5735 119.756 94.4205 119.756C92.9003 119.756 91.8706 120.418 90.9879 121.914H90.9143V119.952H87.0894V132.506H91.086V126.867C91.086 124.254 92.5329 123.043 94.8183 123.254V119.771Z" fill="#7D91C3"/>
<path d="M114.431 124.586C112.837 124.292 111.415 124.17 111.415 123.287C111.415 122.502 112.175 122.135 113.156 122.135C114.259 122.135 115.02 122.478 115.167 123.606H118.845C118.648 121.129 116.736 119.585 113.181 119.585C110.214 119.585 107.762 120.958 107.762 123.606C107.762 126.548 110.091 127.136 112.274 127.504C113.941 127.799 115.461 127.921 115.461 129.049C115.461 129.858 114.701 130.299 113.499 130.299C112.294 130.299 111.497 129.789 111.252 128.755H107.444C107.724 131.335 109.99 132.898 113.524 132.898C116.809 132.898 119.237 131.476 119.237 128.73C119.237 125.518 116.638 124.954 114.431 124.586Z" fill="#7D91C3"/>
<path d="M101.018 122.429C102.317 122.429 103.249 123.385 103.396 124.881H98.4435C98.7132 123.385 99.4979 122.429 101.018 122.429ZM101.239 130.005C99.5959 130.005 98.6642 128.951 98.419 127.259H107.442C107.466 124.709 106.731 122.527 105.235 121.154C104.156 120.173 102.734 119.585 100.944 119.585C97.1194 119.585 94.496 122.453 94.496 126.205C94.496 130.005 97.0461 132.874 101.19 132.874C102.783 132.874 104.058 132.457 105.113 131.722C106.216 130.961 106.952 129.883 107.221 128.755H103.323C102.979 129.539 102.293 130.005 101.239 130.005Z" fill="#7D91C3"/>
<path d="M126.276 129.546C126.091 129.553 125.842 129.564 125.613 129.564C124.755 129.564 124.216 129.319 124.216 128.338V122.453H126.276V119.952H124.216V115.98H120.317V119.952H119.091V122.453H120.317V129.196C120.317 131.893 121.985 132.653 124.314 132.653C125.203 132.653 125.875 132.587 126.276 132.508V129.546Z" fill="#7D91C3"/>
<path d="M73.8467 129.551C73.6872 129.558 73.5032 129.564 73.3313 129.564C72.4733 129.564 71.9337 129.319 71.9337 128.338V122.453H73.8467V119.952H71.9337V115.98H68.0352V119.952H66.7352V122.453H68.0352V129.196C68.0352 131.893 69.7024 132.653 72.0318 132.653C72.82 132.653 73.437 132.601 73.8467 132.534V129.551Z" fill="#7D91C3"/>
<path d="M82.5522 124.881C82.405 123.385 81.4731 122.429 80.1737 122.429C78.6535 122.429 77.8688 123.385 77.5991 124.881H82.5522ZM73.6518 126.205C73.6518 122.453 76.2752 119.585 80.1002 119.585C81.8899 119.585 83.3121 120.173 84.391 121.154C85.8867 122.527 86.6221 124.709 86.5976 127.259H77.5748C77.8198 128.951 78.7515 130.005 80.3944 130.005C81.4485 130.005 82.1353 129.539 82.4784 128.755H86.3771C86.1072 129.883 85.3718 130.962 84.2684 131.722C83.214 132.457 81.9392 132.874 80.3454 132.874C76.2017 132.874 73.6518 130.005 73.6518 126.205Z" fill="#7D91C3"/>
<path d="M42.7762 123.213C44.3455 123.213 45.2282 122.282 45.2282 120.884C45.2282 119.486 44.321 118.628 42.7762 118.628H39.7112V123.213H42.7762ZM35.665 114.975H42.6052C44.7382 114.975 46.3075 115.563 47.3864 116.593C48.5143 117.647 49.1519 119.143 49.1519 120.909C49.1519 124.268 46.8224 126.646 43.2182 126.646H39.7112V132.506H35.665V114.975Z" fill="#7D91C3"/>
<path d="M15.0893 109.178C6.75574 109.178 0 115.934 0 124.268C0 130.66 3.97728 136.125 9.59035 138.324C9.4585 137.13 9.33926 135.294 9.64268 133.99C9.9169 132.813 11.4121 126.49 11.4121 126.49C11.4121 126.49 10.9607 125.586 10.9607 124.25C10.9607 122.152 12.1769 120.585 13.6911 120.585C14.9784 120.585 15.6002 121.552 15.6002 122.711C15.6002 124.005 14.776 125.941 14.3506 127.735C13.9951 129.237 15.1037 130.461 16.5851 130.461C19.2669 130.461 21.3285 127.634 21.3285 123.552C21.3285 119.939 18.7325 117.413 15.0256 117.413C10.7321 117.413 8.21207 120.633 8.21207 123.961C8.21207 125.258 8.71165 126.649 9.33506 127.405C9.45838 127.554 9.47644 127.685 9.4397 127.837C9.32515 128.314 9.0706 129.339 9.02064 129.549C8.95483 129.825 8.80195 129.884 8.51597 129.75C6.63142 128.873 5.45314 126.118 5.45314 123.905C5.45314 119.145 8.91154 114.774 15.4232 114.774C20.6577 114.774 24.7255 118.504 24.7255 123.488C24.7255 128.689 21.4467 132.874 16.8955 132.874C15.3665 132.874 13.9291 132.08 13.437 131.141C13.437 131.141 12.6804 134.022 12.497 134.728C12.1563 136.039 11.2367 137.682 10.6216 138.684C12.0334 139.121 13.5337 139.357 15.0893 139.357C23.423 139.357 30.1786 132.601 30.1786 124.268C30.1786 115.934 23.423 109.178 15.0893 109.178Z" fill="#7D91C3"/>
<path d="M36.5265 23.8031C35.61 23.2939 35.1347 22.8866 35.1347 22.3095C35.1347 21.5966 35.7798 21.1213 36.7981 21.1213C37.9862 21.1213 39.0387 21.6305 39.0387 21.6305L39.8533 19.0845C39.8533 19.0845 39.1066 18.4735 36.8321 18.4735C33.709 18.4735 31.5364 20.2727 31.5364 22.7847C31.5364 24.2105 32.5549 25.2968 33.9127 26.0776C34.9989 26.6886 35.4063 27.1299 35.4063 27.7749C35.4063 28.4538 34.8631 28.997 33.8448 28.997C32.3512 28.997 30.9254 28.2162 30.9254 28.2162L30.0427 30.7623C30.0427 30.7623 31.3666 31.6448 33.5732 31.6448C36.7981 31.6448 39.1066 30.0493 39.1066 27.1978C39.1066 25.6702 37.9183 24.5839 36.5265 23.8031ZM49.3585 18.4396C47.7628 18.4396 46.5408 19.1864 45.5564 20.3406L45.4885 20.3066L46.8803 13.1099H43.3158L39.8533 31.4071H43.4177L44.6058 25.161C45.0811 22.7847 46.3031 21.359 47.4235 21.359C48.2381 21.359 48.5436 21.9021 48.5436 22.6829C48.5436 23.1921 48.4757 23.7692 48.3739 24.2784L47.0161 31.4411H50.5805L51.9723 24.0408C52.142 23.26 52.2439 22.3434 52.2439 21.6984C52.2778 19.6616 51.2253 18.4396 49.3585 18.4396ZM60.3571 18.4396C56.0459 18.4396 53.1943 22.3434 53.1943 26.6546C53.1943 29.4382 54.8916 31.6787 58.1165 31.6787C62.36 31.6787 65.2114 27.8767 65.2114 23.4637C65.2114 20.8837 63.7178 18.4396 60.3571 18.4396ZM58.5918 28.9291C57.3698 28.9291 56.8606 27.8767 56.8606 26.5868C56.8606 24.55 57.9128 21.1892 59.8818 21.1892C61.1377 21.1892 61.5791 22.2755 61.5791 23.3279C61.5791 25.5684 60.4929 28.9291 58.5918 28.9291ZM74.3771 18.4396C71.9668 18.4396 70.609 20.5782 70.609 20.5782H70.5411L70.7448 18.6432H67.5878C67.418 19.9332 67.1464 21.9021 66.8748 23.3958L64.3968 36.4991H67.961L68.9456 31.2034H69.0135C69.0135 31.2034 69.7602 31.6787 71.1182 31.6787C75.3275 31.6787 78.0771 27.3675 78.0771 23.0224C78.0771 20.6121 76.9909 18.4396 74.3771 18.4396ZM70.9485 28.9631C70.0318 28.9631 69.4549 28.4538 69.4549 28.4538L70.0658 25.0931C70.4732 22.8526 71.6612 21.3929 72.8833 21.3929C73.9697 21.3929 74.3092 22.4113 74.3092 23.3618C74.3432 25.6702 72.9512 28.9631 70.9485 28.9631ZM83.1691 13.3136C82.015 13.3136 81.1325 14.2302 81.1325 15.3844C81.1325 16.4367 81.8113 17.1835 82.8298 17.1835H82.8977C84.0179 17.1835 84.9683 16.4367 85.0023 15.1128C84.9683 14.0604 84.2556 13.3136 83.1691 13.3136ZM78.179 31.4071H81.7434L84.1876 18.7451H80.5893L78.179 31.4071ZM93.2852 18.7111H90.8072L90.943 18.1001C91.1467 16.878 91.8935 15.7917 93.0815 15.7917C93.7266 15.7917 94.2359 15.9615 94.2359 15.9615L94.9486 13.1439C94.9486 13.1439 94.3377 12.8384 93.0136 12.8384C91.7576 12.8384 90.4677 13.2118 89.5173 14.0265C88.2951 15.0788 87.7181 16.5725 87.4465 18.0662L87.3447 18.6772H85.6813L85.172 21.359H86.8354L84.8665 31.4071H88.4309L90.3319 21.3929H92.8101L93.2852 18.7111ZM101.908 18.7451C101.908 18.7451 99.6674 24.3802 98.6488 27.4694H98.5809C98.513 26.4849 97.6984 18.7451 97.6984 18.7451H93.9303L96.069 30.3888C96.1369 30.6604 96.1029 30.7962 96.0011 30.9999C95.5937 31.8145 94.8807 32.5954 94.0661 33.1384C93.3871 33.6477 92.6404 33.9532 92.0293 34.1569L93.0136 37.1781C93.7266 37.0084 95.2542 36.4312 96.5101 35.2431C98.1396 33.7156 99.6334 31.3392 101.195 28.1483L105.574 18.7451H101.908Z" fill="#7D91C3"/>
<path d="M17.0412 36.4316L25.9014 34.4968C25.9014 34.4968 22.7102 12.8728 22.6762 12.737C22.6423 12.6012 22.5406 12.4993 22.4048 12.4993C22.303 12.4993 20.0285 12.3296 20.0285 12.3296L18.2972 10.5984C18.2633 10.5644 18.1954 10.5305 18.1614 10.4965L17.0412 36.4316ZM17.7541 10.4965C17.7201 10.4965 17.6862 10.4965 17.6522 10.5305C17.6183 10.5305 17.3128 10.6323 16.7696 10.802C16.2604 9.27441 15.3099 7.91656 13.6805 7.91656H13.5447C13.1034 7.27157 12.5263 7 12.051 7C8.24903 7 6.41592 11.7525 5.87277 14.1627C4.41307 14.6041 3.36072 14.9435 3.22493 14.9774C2.41022 15.249 2.37627 15.249 2.27441 16.0298C2.17258 16.6408 0 33.3086 0 33.3086L16.6339 36.4316L17.7541 10.4965ZM13.4429 11.6507V11.8204C12.5263 12.092 11.5079 12.4315 10.4895 12.737C11.0666 10.5644 12.1189 9.51205 13.0355 9.10468C13.3071 9.68178 13.4429 10.5305 13.4429 11.6507ZM11.9492 8.0184C12.1189 8.0184 12.2887 8.08629 12.4245 8.18813C11.2024 8.76523 9.91242 10.191 9.33531 13.0765C8.5206 13.3141 7.73983 13.5857 7.02695 13.7893C7.67193 11.6167 9.19953 8.0184 11.9492 8.0184ZM12.5942 20.8842C12.5942 20.8842 11.6097 20.375 10.4216 20.375C8.65638 20.375 8.55455 21.4952 8.55455 21.7668C8.55455 23.2944 12.5263 23.8715 12.5263 27.4359C12.5263 30.2534 10.7271 32.0526 8.35086 32.0526C5.4654 32.0526 4.0057 30.2534 4.0057 30.2534L4.78646 27.7074C4.78646 27.7074 6.31406 28.9974 7.5701 28.9974C8.41877 28.9974 8.75823 28.3524 8.75823 27.8432C8.75823 25.8404 5.49935 25.7725 5.49935 22.4797C5.49935 19.73 7.46825 17.0482 11.474 17.0482C13.0015 17.0482 13.7823 17.4895 13.7823 17.4895L12.5942 20.8842ZM14.1218 8.90101C14.9705 9.00285 15.5136 9.95335 15.887 11.0736C15.4797 11.2094 14.9705 11.3452 14.4613 11.5149V11.2094C14.4613 10.2589 14.3255 9.51205 14.1218 8.90101Z" fill="#7D91C3"/>
<path d="M0 321.359H19.3334V331.026H9.66664L0 321.359ZM0 331.026H9.66664L19.3334 340.692H0V331.026ZM0 340.692H9.66664V350.359L0 340.692Z" fill="#7D91C3"/>
<path d="M31.3334 327.359H42.074V330.772H35.3987V335.515H42.074V338.853H35.3987V344.925H31.3334V327.359ZM44.2823 332.829H48.1221V335.364C48.3227 334.493 48.7329 333.824 49.3517 333.356C49.9863 332.871 50.6908 332.629 51.4597 332.629C51.8615 332.629 52.1964 332.663 52.4632 332.729V336.293C52.0803 336.247 51.6949 336.222 51.309 336.218C50.255 336.218 49.4611 336.56 48.925 337.246C48.3907 337.915 48.1221 338.919 48.1221 340.258V344.925H44.2841V332.829H44.2823ZM58.5247 345.252C57.354 345.252 56.3328 344.975 55.463 344.423C54.6095 343.871 53.9312 343.088 53.5057 342.165C53.0541 341.195 52.8268 340.098 52.8268 338.877C52.8268 337.673 53.0625 336.585 53.5306 335.615C53.9695 334.679 54.6661 333.886 55.5384 333.331C56.424 332.78 57.4366 332.503 58.5751 332.503C59.4279 332.503 60.1902 332.688 60.8588 333.056C61.5274 333.424 62.0295 333.927 62.3644 334.561V332.829H66.1786V344.925H62.3644V343.219C62.0295 343.821 61.511 344.314 60.8084 344.699C60.1057 345.072 59.3204 345.262 58.5247 345.252ZM59.6291 342.064C60.5488 342.064 61.26 341.763 61.7621 341.161C62.2641 340.559 62.5152 339.797 62.5152 338.877C62.5152 337.974 62.2641 337.221 61.7621 336.619C61.26 336.016 60.5488 335.715 59.6291 335.715C58.7581 335.715 58.0567 336.008 57.5211 336.594C57.0027 337.18 56.7431 337.94 56.7431 338.877C56.7431 339.815 57.0027 340.584 57.5211 341.186C58.0567 341.772 58.7593 342.064 59.6291 342.064ZM68.8641 332.829H72.7038V334.586C72.9725 333.966 73.4065 333.464 74.0083 333.08C74.6283 332.697 75.3474 332.503 76.1667 332.503C78.0741 332.503 79.3378 333.247 79.956 334.737C80.2964 334.062 80.8289 333.503 81.4869 333.131C82.1908 332.707 82.9995 332.49 83.821 332.503C86.6821 332.503 88.1118 334.142 88.1118 337.422V344.925H84.2477V338.124C84.2477 337.306 84.0964 336.703 83.7955 336.318C83.4946 335.934 83.0424 335.74 82.4406 335.74C81.7878 335.74 81.2863 335.966 80.9347 336.418C80.5833 336.853 80.4077 337.614 80.4077 338.702V344.925H76.543V338.099C76.543 337.28 76.3928 336.686 76.0914 336.318C75.8081 335.934 75.3638 335.74 74.7626 335.74C74.0928 335.74 73.5822 335.966 73.2308 336.418C72.8795 336.853 72.7038 337.614 72.7038 338.702V344.925H68.8653V332.829H68.8641ZM102.536 338.25C102.536 338.768 102.502 339.329 102.434 339.931H93.5021C93.5359 340.718 93.803 341.319 94.3045 341.739C94.8069 342.156 95.4861 342.366 96.3377 342.366C97.5258 342.366 98.2789 342.005 98.5962 341.286H102.361C102.176 342.475 101.524 343.436 100.402 344.172C99.2991 344.891 97.9433 345.252 96.3377 345.252C94.2635 345.252 92.6323 344.691 91.4434 343.57C90.2727 342.449 89.6873 340.885 89.6873 338.877C89.6873 337.572 89.9545 336.443 90.4897 335.489C91.0076 334.537 91.8044 333.766 92.7736 333.281C93.7611 332.763 94.9072 332.503 96.2137 332.503C97.4501 332.503 98.546 332.746 99.4997 333.231C100.47 333.717 101.215 334.394 101.733 335.264C102.269 336.135 102.536 337.13 102.536 338.25ZM98.7448 337.547C98.7284 336.745 98.5032 336.133 98.0674 335.715C97.6334 335.298 97.0051 335.088 96.1855 335.088C95.3658 335.088 94.7139 335.314 94.2279 335.766C93.7602 336.201 93.5176 336.794 93.5003 337.547H98.7448ZM104.229 332.829H108.068V335.364C108.269 334.493 108.679 333.824 109.298 333.356C109.899 332.884 110.642 332.627 111.406 332.629C111.808 332.629 112.143 332.663 112.41 332.729V336.293C112.027 336.247 111.642 336.222 111.256 336.218C110.202 336.218 109.408 336.56 108.872 337.246C108.336 337.915 108.068 338.919 108.068 340.258V344.925H104.229V332.829Z" fill="#7D91C3"/>
<defs>
<clipPath id="clip0_1_4029">
<rect width="143" height="40.8571" fill="white" transform="translate(174.373 315.131)"/>
</clipPath>
<clipPath id="clip1_1_4029">
<rect width="125" height="30" fill="white" transform="translate(183 212)"/>
</clipPath>
<clipPath id="clip2_1_4029">
<rect width="132.206" height="43.7647" fill="white" transform="translate(180.373)"/>
</clipPath>
<clipPath id="clip3_1_4029">
<rect width="106.137" height="39.4929" fill="white" transform="translate(372.373 318.066)"/>
</clipPath>
<clipPath id="clip4_1_4029">
<rect width="107" height="41.088" fill="white" transform="translate(371.373 209.979)"/>
</clipPath>
</defs>
</svg>
