<svg width="56" height="34" viewBox="0 0 56 34" fill="none" xmlns="http://www.w3.org/2000/svg">
<path fill-rule="evenodd" clip-rule="evenodd" d="M32.7307 10.5427C31.0465 12.1782 30 14.4669 30 17C30 19.5331 31.0465 21.8218 32.7307 23.4573C30.1885 29.6438 24.103 34 17 34C7.61116 34 0 26.3888 0 17C0 7.61116 7.61116 0 17 0C24.103 0 30.1885 4.35621 32.7307 10.5427Z" fill="#4A78ED"/>
<path fill-rule="evenodd" clip-rule="evenodd" d="M39 34C48.3888 34 56 26.3888 56 17C56 7.61116 48.3888 0 39 0C29.6112 0 22 7.61116 22 17C22 26.3888 29.6112 34 39 34ZM39 26C43.9706 26 48 21.9706 48 17C48 12.0294 43.9706 8 39 8C34.0294 8 30 12.0294 30 17C30 21.9706 34.0294 26 39 26Z" fill="#C6D4FA"/>
</svg>
