<svg width="546" height="345" viewBox="0 0 546 345" fill="none" xmlns="http://www.w3.org/2000/svg">
<path d="M504.167 40.9853V44C504.167 44.5304 503.956 45.0391 503.581 45.4142C503.206 45.7893 502.697 46 502.167 46H492.833C492.303 46 491.794 45.7893 491.419 45.4142C491.044 45.0391 490.833 44.5304 490.833 44V40.9853L491.202 41.17C493.156 42.1541 495.313 42.6666 497.501 42.6664C499.689 42.6662 501.846 42.1532 503.8 41.1686L504.167 40.9853ZM498.833 33.3333C499.364 33.3333 499.872 33.544 500.248 33.9191C500.623 34.2942 500.833 34.8029 500.833 35.3333V36H502.167C502.697 36 503.206 36.2107 503.581 36.5858C503.956 36.9608 504.167 37.4695 504.167 38V39.4946L503.202 39.9773C501.476 40.8474 499.574 41.3109 497.641 41.3324C495.708 41.3539 493.796 40.9328 492.051 40.1013L491.62 39.888L490.833 39.4946V38C490.833 37.4695 491.044 36.9608 491.419 36.5858C491.794 36.2107 492.303 36 492.833 36H494.167V35.3333C494.167 34.8029 494.377 34.2942 494.752 33.9191C495.128 33.544 495.636 33.3333 496.167 33.3333H498.833ZM497.5 38.6666C497.323 38.6666 497.154 38.7369 497.029 38.8619C496.904 38.9869 496.833 39.1565 496.833 39.3333C496.833 39.4208 496.85 39.5076 496.883 39.5887C496.916 39.6697 496.965 39.7435 497.026 39.8057C497.088 39.8679 497.161 39.9174 497.242 39.9513C497.323 39.9852 497.409 40.0029 497.497 40.0033C497.584 40.0037 497.671 39.9869 497.752 39.9538C497.833 39.9207 497.907 39.872 497.969 39.8104C498.031 39.7488 498.081 39.6755 498.115 39.5948C498.149 39.5141 498.166 39.4275 498.167 39.34C498.167 38.9653 497.868 38.6666 497.5 38.6666ZM498.833 34.6666H496.167C495.99 34.6666 495.82 34.7369 495.695 34.8619C495.57 34.9869 495.5 35.1565 495.5 35.3333V36H499.5V35.3333C499.5 35.1565 499.43 34.9869 499.305 34.8619C499.18 34.7369 499.01 34.6666 498.833 34.6666Z" fill="#4A78ED"/>
<path fill-rule="evenodd" clip-rule="evenodd" d="M274.5 277.5C332.214 277.5 379 230.714 379 173C379 115.286 332.214 68.5 274.5 68.5C216.786 68.5 170 115.286 170 173C170 230.714 216.786 277.5 274.5 277.5ZM274.5 261.726C323.502 261.726 363.226 222.002 363.226 173C363.226 123.998 323.502 84.2736 274.5 84.2736C225.498 84.2736 185.774 123.998 185.774 173C185.774 222.002 225.498 261.726 274.5 261.726Z" fill="#7D91C4"/>
<path d="M366.868 46V33.652H376.732V35.848H369.568V38.602H375.904V40.78H369.568V43.786H376.84V46H366.868ZM377.949 46L382.395 39.502L378.381 33.652H381.657L384.213 37.558H384.303L386.841 33.652H389.919L385.887 39.502L390.333 46H387.057L384.087 41.428H383.997L381.045 46H377.949ZM391.864 46V33.652H398.29C399.178 33.652 399.916 33.82 400.504 34.156C401.104 34.48 401.554 34.942 401.854 35.542C402.166 36.13 402.322 36.832 402.322 37.648C402.322 38.464 402.16 39.178 401.836 39.79C401.524 40.39 401.062 40.858 400.45 41.194C399.838 41.53 399.088 41.698 398.2 41.698H394.546V46H391.864ZM394.546 39.502H397.84C398.404 39.502 398.836 39.34 399.136 39.016C399.448 38.692 399.604 38.242 399.604 37.666C399.604 37.27 399.538 36.94 399.406 36.676C399.274 36.412 399.076 36.208 398.812 36.064C398.56 35.92 398.236 35.848 397.84 35.848H394.546V39.502ZM404.116 46V33.652H413.98V35.848H406.816V38.602H413.152V40.78H406.816V43.786H414.088V46H404.116ZM416.403 46V33.652H423.171C424.083 33.652 424.839 33.814 425.439 34.138C426.051 34.462 426.507 34.918 426.807 35.506C427.107 36.082 427.257 36.748 427.257 37.504C427.257 38.308 427.077 39.022 426.717 39.646C426.357 40.258 425.835 40.726 425.151 41.05L427.671 46H424.701L422.523 41.5H419.085V46H416.403ZM419.085 39.376H422.811C423.351 39.376 423.771 39.214 424.071 38.89C424.371 38.554 424.521 38.104 424.521 37.54C424.521 37.18 424.455 36.874 424.323 36.622C424.191 36.358 423.999 36.16 423.747 36.028C423.495 35.896 423.183 35.83 422.811 35.83H419.085V39.376ZM429.552 46V33.652H432.234V46H429.552ZM434.966 46V33.652H444.83V35.848H437.666V38.602H444.002V40.78H437.666V43.786H444.938V46H434.966ZM447.253 46V33.652H449.719L454.687 40.312C454.759 40.396 454.849 40.516 454.957 40.672C455.065 40.816 455.167 40.96 455.263 41.104C455.359 41.248 455.425 41.362 455.461 41.446H455.551C455.551 41.242 455.551 41.044 455.551 40.852C455.551 40.648 455.551 40.468 455.551 40.312V33.652H458.089V46H455.623L450.547 39.178C450.427 39.01 450.301 38.824 450.169 38.62C450.037 38.416 449.941 38.26 449.881 38.152H449.791C449.791 38.332 449.791 38.512 449.791 38.692C449.791 38.86 449.791 39.022 449.791 39.178V46H447.253ZM466.349 46.216C465.065 46.216 463.967 45.994 463.055 45.55C462.143 45.094 461.447 44.392 460.967 43.444C460.499 42.496 460.265 41.29 460.265 39.826C460.265 37.666 460.793 36.064 461.849 35.02C462.917 33.964 464.417 33.436 466.349 33.436C467.405 33.436 468.353 33.616 469.193 33.976C470.033 34.336 470.693 34.876 471.173 35.596C471.665 36.316 471.911 37.222 471.911 38.314H469.211C469.211 37.738 469.091 37.252 468.851 36.856C468.623 36.46 468.293 36.16 467.861 35.956C467.441 35.74 466.949 35.632 466.385 35.632C465.617 35.632 464.981 35.782 464.477 36.082C463.985 36.382 463.619 36.826 463.379 37.414C463.151 37.99 463.037 38.698 463.037 39.538V40.096C463.037 40.96 463.157 41.686 463.397 42.274C463.637 42.85 463.997 43.288 464.477 43.588C464.969 43.876 465.599 44.02 466.367 44.02C466.967 44.02 467.489 43.918 467.933 43.714C468.377 43.51 468.719 43.21 468.959 42.814C469.199 42.418 469.319 41.932 469.319 41.356H471.911C471.911 42.448 471.671 43.354 471.191 44.074C470.723 44.794 470.069 45.334 469.229 45.694C468.389 46.042 467.429 46.216 466.349 46.216ZM474.024 46V33.652H483.888V35.848H476.724V38.602H483.06V40.78H476.724V43.786H483.996V46H474.024Z" fill="white"/>
<path d="M59.368 46V33.652H61.834L66.802 40.312C66.874 40.396 66.964 40.516 67.072 40.672C67.18 40.816 67.282 40.96 67.378 41.104C67.474 41.248 67.54 41.362 67.576 41.446H67.666C67.666 41.242 67.666 41.044 67.666 40.852C67.666 40.648 67.666 40.468 67.666 40.312V33.652H70.204V46H67.738L62.662 39.178C62.542 39.01 62.416 38.824 62.284 38.62C62.152 38.416 62.056 38.26 61.996 38.152H61.906C61.906 38.332 61.906 38.512 61.906 38.692C61.906 38.86 61.906 39.022 61.906 39.178V46H59.368ZM72.9383 46V33.652H82.8023V35.848H75.6383V38.602H81.9743V40.78H75.6383V43.786H82.9103V46H72.9383ZM88.2674 46V35.902H84.3074V33.652H94.9454V35.902H90.9674V46H88.2674ZM98.7907 46L95.5507 33.652H98.3947L100.195 41.014C100.231 41.122 100.267 41.284 100.303 41.5C100.339 41.704 100.375 41.92 100.411 42.148C100.447 42.376 100.477 42.58 100.501 42.76H100.591C100.615 42.628 100.633 42.478 100.645 42.31C100.669 42.142 100.693 41.98 100.717 41.824C100.753 41.656 100.783 41.5 100.807 41.356C100.843 41.212 100.867 41.098 100.879 41.014L102.553 33.652H105.757L107.467 41.014C107.503 41.134 107.539 41.296 107.575 41.5C107.611 41.704 107.647 41.92 107.683 42.148C107.719 42.376 107.749 42.58 107.773 42.76H107.863C107.887 42.628 107.911 42.484 107.935 42.328C107.971 42.172 108.001 42.016 108.025 41.86C108.061 41.692 108.097 41.536 108.133 41.392C108.169 41.248 108.199 41.122 108.223 41.014L110.005 33.652H112.579L109.321 46H106.261L104.443 38.404C104.407 38.236 104.365 38.044 104.317 37.828C104.281 37.6 104.245 37.378 104.209 37.162C104.173 36.946 104.143 36.754 104.119 36.586H104.047C104.023 36.754 103.993 36.952 103.957 37.18C103.933 37.408 103.897 37.63 103.849 37.846C103.813 38.062 103.777 38.248 103.741 38.404L101.941 46H98.7907ZM119.585 46.216C118.277 46.216 117.149 45.982 116.201 45.514C115.253 45.046 114.527 44.338 114.023 43.39C113.519 42.442 113.267 41.254 113.267 39.826C113.267 38.374 113.519 37.18 114.023 36.244C114.527 35.296 115.253 34.594 116.201 34.138C117.149 33.67 118.277 33.436 119.585 33.436C120.917 33.436 122.051 33.67 122.987 34.138C123.935 34.594 124.661 35.296 125.165 36.244C125.669 37.18 125.921 38.374 125.921 39.826C125.921 41.254 125.669 42.442 125.165 43.39C124.661 44.338 123.935 45.046 122.987 45.514C122.051 45.982 120.917 46.216 119.585 46.216ZM119.585 44.02C120.173 44.02 120.689 43.936 121.133 43.768C121.577 43.6 121.949 43.348 122.249 43.012C122.549 42.676 122.777 42.268 122.933 41.788C123.089 41.296 123.167 40.738 123.167 40.114V39.556C123.167 38.92 123.089 38.356 122.933 37.864C122.777 37.372 122.549 36.964 122.249 36.64C121.949 36.304 121.577 36.052 121.133 35.884C120.689 35.716 120.173 35.632 119.585 35.632C119.009 35.632 118.499 35.716 118.055 35.884C117.611 36.052 117.239 36.304 116.939 36.64C116.639 36.964 116.411 37.372 116.255 37.864C116.111 38.356 116.039 38.92 116.039 39.556V40.114C116.039 40.738 116.111 41.296 116.255 41.788C116.411 42.268 116.639 42.676 116.939 43.012C117.239 43.348 117.611 43.6 118.055 43.768C118.499 43.936 119.009 44.02 119.585 44.02ZM128.098 46V33.652H134.866C135.778 33.652 136.534 33.814 137.134 34.138C137.746 34.462 138.202 34.918 138.502 35.506C138.802 36.082 138.952 36.748 138.952 37.504C138.952 38.308 138.772 39.022 138.412 39.646C138.052 40.258 137.53 40.726 136.846 41.05L139.366 46H136.396L134.218 41.5H130.78V46H128.098ZM130.78 39.376H134.506C135.046 39.376 135.466 39.214 135.766 38.89C136.066 38.554 136.216 38.104 136.216 37.54C136.216 37.18 136.15 36.874 136.018 36.622C135.886 36.358 135.694 36.16 135.442 36.028C135.19 35.896 134.878 35.83 134.506 35.83H130.78V39.376ZM141.247 46V33.652H143.929V39.268L149.185 33.652H152.497L147.781 38.674L152.587 46H149.383L145.927 40.528L143.929 42.328V46H141.247ZM154.29 46V33.652H156.972V46H154.29ZM159.704 46V33.652H162.17L167.138 40.312C167.21 40.396 167.3 40.516 167.408 40.672C167.516 40.816 167.618 40.96 167.714 41.104C167.81 41.248 167.876 41.362 167.912 41.446H168.002C168.002 41.242 168.002 41.044 168.002 40.852C168.002 40.648 168.002 40.468 168.002 40.312V33.652H170.54V46H168.074L162.998 39.178C162.878 39.01 162.752 38.824 162.62 38.62C162.488 38.416 162.392 38.26 162.332 38.152H162.242C162.242 38.332 162.242 38.512 162.242 38.692C162.242 38.86 162.242 39.022 162.242 39.178V46H159.704ZM178.89 46.216C176.946 46.216 175.446 45.7 174.39 44.668C173.346 43.624 172.824 42.01 172.824 39.826C172.824 38.374 173.076 37.18 173.58 36.244C174.084 35.296 174.816 34.594 175.776 34.138C176.736 33.67 177.888 33.436 179.232 33.436C180.036 33.436 180.792 33.526 181.5 33.706C182.208 33.886 182.832 34.162 183.372 34.534C183.924 34.906 184.35 35.374 184.65 35.938C184.962 36.49 185.118 37.15 185.118 37.918H182.4C182.4 37.546 182.316 37.216 182.148 36.928C181.992 36.64 181.77 36.4 181.482 36.208C181.194 36.016 180.864 35.872 180.492 35.776C180.12 35.68 179.73 35.632 179.322 35.632C178.698 35.632 178.152 35.716 177.684 35.884C177.216 36.04 176.826 36.286 176.514 36.622C176.214 36.946 175.986 37.354 175.83 37.846C175.674 38.338 175.596 38.908 175.596 39.556V40.096C175.596 40.996 175.728 41.734 175.992 42.31C176.256 42.886 176.652 43.318 177.18 43.606C177.708 43.882 178.362 44.02 179.142 44.02C179.79 44.02 180.36 43.924 180.852 43.732C181.356 43.528 181.746 43.24 182.022 42.868C182.31 42.496 182.454 42.04 182.454 41.5V41.374H178.764V39.322H185.118V46H183.354L183.12 44.668C182.76 45.016 182.37 45.304 181.95 45.532C181.542 45.76 181.086 45.928 180.582 46.036C180.078 46.156 179.514 46.216 178.89 46.216Z" fill="white"/>
<path d="M413.868 101V88.652H420.294C421.182 88.652 421.92 88.82 422.508 89.156C423.108 89.48 423.558 89.942 423.858 90.542C424.17 91.13 424.326 91.832 424.326 92.648C424.326 93.464 424.164 94.178 423.84 94.79C423.528 95.39 423.066 95.858 422.454 96.194C421.842 96.53 421.092 96.698 420.204 96.698H416.55V101H413.868ZM416.55 94.502H419.844C420.408 94.502 420.84 94.34 421.14 94.016C421.452 93.692 421.608 93.242 421.608 92.666C421.608 92.27 421.542 91.94 421.41 91.676C421.278 91.412 421.08 91.208 420.816 91.064C420.564 90.92 420.24 90.848 419.844 90.848H416.55V94.502ZM431.88 101.216C430.572 101.216 429.444 100.982 428.496 100.514C427.548 100.046 426.822 99.338 426.318 98.39C425.814 97.442 425.562 96.254 425.562 94.826C425.562 93.374 425.814 92.18 426.318 91.244C426.822 90.296 427.548 89.594 428.496 89.138C429.444 88.67 430.572 88.436 431.88 88.436C433.212 88.436 434.346 88.67 435.282 89.138C436.23 89.594 436.956 90.296 437.46 91.244C437.964 92.18 438.216 93.374 438.216 94.826C438.216 96.254 437.964 97.442 437.46 98.39C436.956 99.338 436.23 100.046 435.282 100.514C434.346 100.982 433.212 101.216 431.88 101.216ZM431.88 99.02C432.468 99.02 432.984 98.936 433.428 98.768C433.872 98.6 434.244 98.348 434.544 98.012C434.844 97.676 435.072 97.268 435.228 96.788C435.384 96.296 435.462 95.738 435.462 95.114V94.556C435.462 93.92 435.384 93.356 435.228 92.864C435.072 92.372 434.844 91.964 434.544 91.64C434.244 91.304 433.872 91.052 433.428 90.884C432.984 90.716 432.468 90.632 431.88 90.632C431.304 90.632 430.794 90.716 430.35 90.884C429.906 91.052 429.534 91.304 429.234 91.64C428.934 91.964 428.706 92.372 428.55 92.864C428.406 93.356 428.334 93.92 428.334 94.556V95.114C428.334 95.738 428.406 96.296 428.55 96.788C428.706 97.268 428.934 97.676 429.234 98.012C429.534 98.348 429.906 98.6 430.35 98.768C430.794 98.936 431.304 99.02 431.88 99.02ZM440.393 101V88.652H447.161C448.073 88.652 448.829 88.814 449.429 89.138C450.041 89.462 450.497 89.918 450.797 90.506C451.097 91.082 451.247 91.748 451.247 92.504C451.247 93.308 451.067 94.022 450.707 94.646C450.347 95.258 449.825 95.726 449.141 96.05L451.661 101H448.691L446.513 96.5H443.075V101H440.393ZM443.075 94.376H446.801C447.341 94.376 447.761 94.214 448.061 93.89C448.361 93.554 448.511 93.104 448.511 92.54C448.511 92.18 448.445 91.874 448.313 91.622C448.181 91.358 447.989 91.16 447.737 91.028C447.485 90.896 447.173 90.83 446.801 90.83H443.075V94.376ZM456.267 101V90.902H452.307V88.652H462.945V90.902H458.967V101H456.267ZM464.757 101V88.652H473.865V90.848H467.439V93.908H473.181V96.086H467.439V101H464.757ZM481.714 101.216C480.406 101.216 479.278 100.982 478.33 100.514C477.382 100.046 476.656 99.338 476.152 98.39C475.648 97.442 475.396 96.254 475.396 94.826C475.396 93.374 475.648 92.18 476.152 91.244C476.656 90.296 477.382 89.594 478.33 89.138C479.278 88.67 480.406 88.436 481.714 88.436C483.046 88.436 484.18 88.67 485.116 89.138C486.064 89.594 486.79 90.296 487.294 91.244C487.798 92.18 488.05 93.374 488.05 94.826C488.05 96.254 487.798 97.442 487.294 98.39C486.79 99.338 486.064 100.046 485.116 100.514C484.18 100.982 483.046 101.216 481.714 101.216ZM481.714 99.02C482.302 99.02 482.818 98.936 483.262 98.768C483.706 98.6 484.078 98.348 484.378 98.012C484.678 97.676 484.906 97.268 485.062 96.788C485.218 96.296 485.296 95.738 485.296 95.114V94.556C485.296 93.92 485.218 93.356 485.062 92.864C484.906 92.372 484.678 91.964 484.378 91.64C484.078 91.304 483.706 91.052 483.262 90.884C482.818 90.716 482.302 90.632 481.714 90.632C481.138 90.632 480.628 90.716 480.184 90.884C479.74 91.052 479.368 91.304 479.068 91.64C478.768 91.964 478.54 92.372 478.384 92.864C478.24 93.356 478.168 93.92 478.168 94.556V95.114C478.168 95.738 478.24 96.296 478.384 96.788C478.54 97.268 478.768 97.676 479.068 98.012C479.368 98.348 479.74 98.6 480.184 98.768C480.628 98.936 481.138 99.02 481.714 99.02ZM490.227 101V88.652H492.909V98.714H499.137V101H490.227ZM500.862 101V88.652H503.544V101H500.862ZM512.036 101.216C510.728 101.216 509.6 100.982 508.652 100.514C507.704 100.046 506.978 99.338 506.474 98.39C505.97 97.442 505.718 96.254 505.718 94.826C505.718 93.374 505.97 92.18 506.474 91.244C506.978 90.296 507.704 89.594 508.652 89.138C509.6 88.67 510.728 88.436 512.036 88.436C513.368 88.436 514.502 88.67 515.438 89.138C516.386 89.594 517.112 90.296 517.616 91.244C518.12 92.18 518.372 93.374 518.372 94.826C518.372 96.254 518.12 97.442 517.616 98.39C517.112 99.338 516.386 100.046 515.438 100.514C514.502 100.982 513.368 101.216 512.036 101.216ZM512.036 99.02C512.624 99.02 513.14 98.936 513.584 98.768C514.028 98.6 514.4 98.348 514.7 98.012C515 97.676 515.228 97.268 515.384 96.788C515.54 96.296 515.618 95.738 515.618 95.114V94.556C515.618 93.92 515.54 93.356 515.384 92.864C515.228 92.372 515 91.964 514.7 91.64C514.4 91.304 514.028 91.052 513.584 90.884C513.14 90.716 512.624 90.632 512.036 90.632C511.46 90.632 510.95 90.716 510.506 90.884C510.062 91.052 509.69 91.304 509.39 91.64C509.09 91.964 508.862 92.372 508.706 92.864C508.562 93.356 508.49 93.92 508.49 94.556V95.114C508.49 95.738 508.562 96.296 508.706 96.788C508.862 97.268 509.09 97.676 509.39 98.012C509.69 98.348 510.062 98.6 510.506 98.768C510.95 98.936 511.46 99.02 512.036 99.02Z" fill="white"/>
<path d="M38.034 101V88.652H44.46C45.348 88.652 46.086 88.82 46.674 89.156C47.274 89.48 47.724 89.942 48.024 90.542C48.336 91.13 48.492 91.832 48.492 92.648C48.492 93.464 48.33 94.178 48.006 94.79C47.694 95.39 47.232 95.858 46.62 96.194C46.008 96.53 45.258 96.698 44.37 96.698H40.716V101H38.034ZM40.716 94.502H44.01C44.574 94.502 45.006 94.34 45.306 94.016C45.618 93.692 45.774 93.242 45.774 92.666C45.774 92.27 45.708 91.94 45.576 91.676C45.444 91.412 45.246 91.208 44.982 91.064C44.73 90.92 44.406 90.848 44.01 90.848H40.716V94.502ZM50.286 101V88.652H57.054C57.966 88.652 58.722 88.814 59.322 89.138C59.934 89.462 60.39 89.918 60.69 90.506C60.99 91.082 61.14 91.748 61.14 92.504C61.14 93.308 60.96 94.022 60.6 94.646C60.24 95.258 59.718 95.726 59.034 96.05L61.554 101H58.584L56.406 96.5H52.968V101H50.286ZM52.968 94.376H56.694C57.234 94.376 57.654 94.214 57.954 93.89C58.254 93.554 58.404 93.104 58.404 92.54C58.404 92.18 58.338 91.874 58.206 91.622C58.074 91.358 57.882 91.16 57.63 91.028C57.378 90.896 57.066 90.83 56.694 90.83H52.968V94.376ZM69.1241 101.216C67.8161 101.216 66.6881 100.982 65.7401 100.514C64.7921 100.046 64.0661 99.338 63.5621 98.39C63.0581 97.442 62.8061 96.254 62.8061 94.826C62.8061 93.374 63.0581 92.18 63.5621 91.244C64.0661 90.296 64.7921 89.594 65.7401 89.138C66.6881 88.67 67.8161 88.436 69.1241 88.436C70.4561 88.436 71.5901 88.67 72.5261 89.138C73.4741 89.594 74.2001 90.296 74.7041 91.244C75.2081 92.18 75.4601 93.374 75.4601 94.826C75.4601 96.254 75.2081 97.442 74.7041 98.39C74.2001 99.338 73.4741 100.046 72.5261 100.514C71.5901 100.982 70.4561 101.216 69.1241 101.216ZM69.1241 99.02C69.7121 99.02 70.2281 98.936 70.6721 98.768C71.1161 98.6 71.4881 98.348 71.7881 98.012C72.0881 97.676 72.3161 97.268 72.4721 96.788C72.6281 96.296 72.7061 95.738 72.7061 95.114V94.556C72.7061 93.92 72.6281 93.356 72.4721 92.864C72.3161 92.372 72.0881 91.964 71.7881 91.64C71.4881 91.304 71.1161 91.052 70.6721 90.884C70.2281 90.716 69.7121 90.632 69.1241 90.632C68.5481 90.632 68.0381 90.716 67.5941 90.884C67.1501 91.052 66.7781 91.304 66.4781 91.64C66.1781 91.964 65.9501 92.372 65.7941 92.864C65.6501 93.356 65.5781 93.92 65.5781 94.556V95.114C65.5781 95.738 65.6501 96.296 65.7941 96.788C65.9501 97.268 66.1781 97.676 66.4781 98.012C66.7781 98.348 67.1501 98.6 67.5941 98.768C68.0381 98.936 68.5481 99.02 69.1241 99.02ZM81.3455 101.216C80.3975 101.216 79.5875 101.078 78.9155 100.802C78.2555 100.514 77.7455 100.088 77.3855 99.524C77.0375 98.96 76.8635 98.246 76.8635 97.382V96.824H79.4915V97.382C79.4915 97.934 79.6415 98.348 79.9415 98.624C80.2535 98.888 80.7155 99.02 81.3275 99.02C81.9155 99.02 82.3595 98.828 82.6595 98.444C82.9595 98.048 83.1095 97.484 83.1095 96.752V88.652H85.8095V96.752C85.8095 97.748 85.6355 98.582 85.2875 99.254C84.9395 99.914 84.4295 100.406 83.7575 100.73C83.0975 101.054 82.2935 101.216 81.3455 101.216ZM88.4832 101V88.652H98.3472V90.848H91.1832V93.602H97.5192V95.78H91.1832V98.786H98.4552V101H88.4832ZM106.296 101.216C105.012 101.216 103.914 100.994 103.002 100.55C102.09 100.094 101.394 99.392 100.914 98.444C100.446 97.496 100.212 96.29 100.212 94.826C100.212 92.666 100.74 91.064 101.796 90.02C102.864 88.964 104.364 88.436 106.296 88.436C107.352 88.436 108.3 88.616 109.14 88.976C109.98 89.336 110.64 89.876 111.12 90.596C111.612 91.316 111.858 92.222 111.858 93.314H109.158C109.158 92.738 109.038 92.252 108.798 91.856C108.57 91.46 108.24 91.16 107.808 90.956C107.388 90.74 106.896 90.632 106.332 90.632C105.564 90.632 104.928 90.782 104.424 91.082C103.932 91.382 103.566 91.826 103.326 92.414C103.098 92.99 102.984 93.698 102.984 94.538V95.096C102.984 95.96 103.104 96.686 103.344 97.274C103.584 97.85 103.944 98.288 104.424 98.588C104.916 98.876 105.546 99.02 106.314 99.02C106.914 99.02 107.436 98.918 107.88 98.714C108.324 98.51 108.666 98.21 108.906 97.814C109.146 97.418 109.266 96.932 109.266 96.356H111.858C111.858 97.448 111.618 98.354 111.138 99.074C110.67 99.794 110.016 100.334 109.176 100.694C108.336 101.042 107.376 101.216 106.296 101.216ZM116.662 101V90.902H112.702V88.652H123.34V90.902H119.362V101H116.662ZM129.957 101.216C129.237 101.216 128.553 101.144 127.905 101C127.257 100.856 126.681 100.628 126.177 100.316C125.685 99.992 125.295 99.59 125.007 99.11C124.731 98.618 124.593 98.024 124.593 97.328C124.593 97.268 124.593 97.208 124.593 97.148C124.593 97.076 124.599 97.022 124.611 96.986H127.275C127.263 97.022 127.257 97.07 127.257 97.13C127.257 97.19 127.257 97.244 127.257 97.292C127.257 97.676 127.359 98 127.563 98.264C127.779 98.528 128.091 98.726 128.499 98.858C128.907 98.99 129.381 99.056 129.921 99.056C130.269 99.056 130.575 99.038 130.839 99.002C131.115 98.954 131.355 98.894 131.559 98.822C131.775 98.738 131.949 98.642 132.081 98.534C132.225 98.426 132.327 98.3 132.387 98.156C132.459 98.012 132.495 97.85 132.495 97.67C132.495 97.346 132.387 97.082 132.171 96.878C131.967 96.674 131.679 96.5 131.307 96.356C130.947 96.212 130.539 96.08 130.083 95.96C129.627 95.84 129.159 95.72 128.679 95.6C128.199 95.468 127.731 95.312 127.275 95.132C126.819 94.94 126.411 94.712 126.051 94.448C125.691 94.184 125.403 93.848 125.187 93.44C124.971 93.032 124.863 92.54 124.863 91.964C124.863 91.352 124.989 90.824 125.241 90.38C125.505 89.936 125.871 89.57 126.339 89.282C126.807 88.994 127.347 88.784 127.959 88.652C128.571 88.508 129.237 88.436 129.957 88.436C130.629 88.436 131.265 88.508 131.865 88.652C132.465 88.784 132.993 89 133.449 89.3C133.905 89.6 134.259 89.978 134.511 90.434C134.775 90.89 134.907 91.43 134.907 92.054V92.27H132.297V92.126C132.297 91.802 132.201 91.526 132.009 91.298C131.817 91.07 131.547 90.89 131.199 90.758C130.851 90.626 130.443 90.56 129.975 90.56C129.471 90.56 129.039 90.608 128.679 90.704C128.331 90.8 128.061 90.944 127.869 91.136C127.689 91.316 127.599 91.532 127.599 91.784C127.599 92.072 127.701 92.312 127.905 92.504C128.121 92.684 128.409 92.846 128.769 92.99C129.141 93.122 129.555 93.242 130.011 93.35C130.467 93.458 130.935 93.578 131.415 93.71C131.895 93.842 132.363 93.998 132.819 94.178C133.275 94.358 133.683 94.586 134.043 94.862C134.403 95.126 134.691 95.456 134.907 95.852C135.123 96.248 135.231 96.722 135.231 97.274C135.231 98.222 135.003 98.984 134.547 99.56C134.091 100.136 133.467 100.556 132.675 100.82C131.883 101.084 130.977 101.216 129.957 101.216Z" fill="white"/>
<path d="M413.868 234V221.652H423.732V223.848H416.568V226.602H422.904V228.78H416.568V231.786H423.84V234H413.868ZM426.155 234V221.652H431.195C432.479 221.652 433.571 221.874 434.471 222.318C435.371 222.762 436.061 223.44 436.541 224.352C437.033 225.252 437.279 226.41 437.279 227.826C437.279 229.23 437.033 230.388 436.541 231.3C436.061 232.212 435.371 232.89 434.471 233.334C433.571 233.778 432.479 234 431.195 234H426.155ZM428.837 231.786H431.177C431.717 231.786 432.197 231.708 432.617 231.552C433.037 231.396 433.385 231.168 433.661 230.868C433.937 230.556 434.147 230.172 434.291 229.716C434.435 229.248 434.507 228.708 434.507 228.096V227.556C434.507 226.944 434.435 226.41 434.291 225.954C434.147 225.486 433.937 225.102 433.661 224.802C433.385 224.49 433.037 224.256 432.617 224.1C432.197 223.932 431.717 223.848 431.177 223.848H428.837V231.786ZM444.808 234.216C443.68 234.216 442.708 234.036 441.892 233.676C441.088 233.316 440.47 232.776 440.038 232.056C439.606 231.324 439.39 230.418 439.39 229.338V221.652H442.09V229.266C442.09 230.154 442.324 230.838 442.792 231.318C443.26 231.786 443.932 232.02 444.808 232.02C445.684 232.02 446.356 231.786 446.824 231.318C447.304 230.838 447.544 230.154 447.544 229.266V221.652H450.244V229.338C450.244 230.418 450.028 231.324 449.596 232.056C449.164 232.776 448.54 233.316 447.724 233.676C446.92 234.036 445.948 234.216 444.808 234.216ZM458.453 234.216C457.169 234.216 456.071 233.994 455.159 233.55C454.247 233.094 453.551 232.392 453.071 231.444C452.603 230.496 452.369 229.29 452.369 227.826C452.369 225.666 452.897 224.064 453.953 223.02C455.021 221.964 456.521 221.436 458.453 221.436C459.509 221.436 460.457 221.616 461.297 221.976C462.137 222.336 462.797 222.876 463.277 223.596C463.769 224.316 464.015 225.222 464.015 226.314H461.315C461.315 225.738 461.195 225.252 460.955 224.856C460.727 224.46 460.397 224.16 459.965 223.956C459.545 223.74 459.053 223.632 458.489 223.632C457.721 223.632 457.085 223.782 456.581 224.082C456.089 224.382 455.723 224.826 455.483 225.414C455.255 225.99 455.141 226.698 455.141 227.538V228.096C455.141 228.96 455.261 229.686 455.501 230.274C455.741 230.85 456.101 231.288 456.581 231.588C457.073 231.876 457.703 232.02 458.471 232.02C459.071 232.02 459.593 231.918 460.037 231.714C460.481 231.51 460.823 231.21 461.063 230.814C461.303 230.418 461.423 229.932 461.423 229.356H464.015C464.015 230.448 463.775 231.354 463.295 232.074C462.827 232.794 462.173 233.334 461.333 233.694C460.493 234.042 459.533 234.216 458.453 234.216ZM464.797 234L469.549 221.652H472.861L477.613 234H474.715L473.833 231.57H468.451L467.569 234H464.797ZM469.225 229.41H473.059L471.961 226.368C471.913 226.236 471.853 226.08 471.781 225.9C471.721 225.708 471.655 225.498 471.583 225.27C471.511 225.042 471.439 224.82 471.367 224.604C471.307 224.376 471.247 224.172 471.187 223.992H471.079C471.019 224.22 470.941 224.49 470.845 224.802C470.749 225.102 470.653 225.396 470.557 225.684C470.461 225.96 470.383 226.188 470.323 226.368L469.225 229.41ZM480.613 234V223.902H476.653V221.652H487.291V223.902H483.313V234H480.613ZM489.102 234V221.652H491.784V234H489.102ZM500.276 234.216C498.968 234.216 497.84 233.982 496.892 233.514C495.944 233.046 495.218 232.338 494.714 231.39C494.21 230.442 493.958 229.254 493.958 227.826C493.958 226.374 494.21 225.18 494.714 224.244C495.218 223.296 495.944 222.594 496.892 222.138C497.84 221.67 498.968 221.436 500.276 221.436C501.608 221.436 502.742 221.67 503.678 222.138C504.626 222.594 505.352 223.296 505.856 224.244C506.36 225.18 506.612 226.374 506.612 227.826C506.612 229.254 506.36 230.442 505.856 231.39C505.352 232.338 504.626 233.046 503.678 233.514C502.742 233.982 501.608 234.216 500.276 234.216ZM500.276 232.02C500.864 232.02 501.38 231.936 501.824 231.768C502.268 231.6 502.64 231.348 502.94 231.012C503.24 230.676 503.468 230.268 503.624 229.788C503.78 229.296 503.858 228.738 503.858 228.114V227.556C503.858 226.92 503.78 226.356 503.624 225.864C503.468 225.372 503.24 224.964 502.94 224.64C502.64 224.304 502.268 224.052 501.824 223.884C501.38 223.716 500.864 223.632 500.276 223.632C499.7 223.632 499.19 223.716 498.746 223.884C498.302 224.052 497.93 224.304 497.63 224.64C497.33 224.964 497.102 225.372 496.946 225.864C496.802 226.356 496.73 226.92 496.73 227.556V228.114C496.73 228.738 496.802 229.296 496.946 229.788C497.102 230.268 497.33 230.676 497.63 231.012C497.93 231.348 498.302 231.6 498.746 231.768C499.19 231.936 499.7 232.02 500.276 232.02ZM508.79 234V221.652H511.256L516.224 228.312C516.296 228.396 516.386 228.516 516.494 228.672C516.602 228.816 516.704 228.96 516.8 229.104C516.896 229.248 516.962 229.362 516.998 229.446H517.088C517.088 229.242 517.088 229.044 517.088 228.852C517.088 228.648 517.088 228.468 517.088 228.312V221.652H519.626V234H517.16L512.084 227.178C511.964 227.01 511.838 226.824 511.706 226.62C511.574 226.416 511.478 226.26 511.418 226.152H511.328C511.328 226.332 511.328 226.512 511.328 226.692C511.328 226.86 511.328 227.022 511.328 227.178V234H508.79Z" fill="white"/>
<path d="M20.825 234V221.652H23.507V231.714H29.735V234H20.825ZM30.1998 234L34.9518 221.652H38.2638L43.0158 234H40.1178L39.2358 231.57H33.8538L32.9718 234H30.1998ZM34.6278 229.41H38.4618L37.3638 226.368C37.3158 226.236 37.2558 226.08 37.1838 225.9C37.1238 225.708 37.0578 225.498 36.9858 225.27C36.9138 225.042 36.8418 224.82 36.7698 224.604C36.7098 224.376 36.6498 224.172 36.5898 223.992H36.4818C36.4218 224.22 36.3438 224.49 36.2478 224.802C36.1518 225.102 36.0558 225.396 35.9598 225.684C35.8638 225.96 35.7858 226.188 35.7258 226.368L34.6278 229.41ZM44.4852 234V221.652H46.9512L51.9192 228.312C51.9912 228.396 52.0812 228.516 52.1892 228.672C52.2972 228.816 52.3992 228.96 52.4952 229.104C52.5912 229.248 52.6572 229.362 52.6932 229.446H52.7832C52.7832 229.242 52.7832 229.044 52.7832 228.852C52.7832 228.648 52.7832 228.468 52.7832 228.312V221.652H55.3212V234H52.8552L47.7792 227.178C47.6592 227.01 47.5332 226.824 47.4012 226.62C47.2692 226.416 47.1732 226.26 47.1132 226.152H47.0232C47.0232 226.332 47.0232 226.512 47.0232 226.692C47.0232 226.86 47.0232 227.022 47.0232 227.178V234H44.4852ZM63.6715 234.216C61.7275 234.216 60.2275 233.7 59.1715 232.668C58.1275 231.624 57.6055 230.01 57.6055 227.826C57.6055 226.374 57.8575 225.18 58.3615 224.244C58.8655 223.296 59.5975 222.594 60.5575 222.138C61.5175 221.67 62.6695 221.436 64.0135 221.436C64.8175 221.436 65.5735 221.526 66.2815 221.706C66.9895 221.886 67.6135 222.162 68.1535 222.534C68.7055 222.906 69.1315 223.374 69.4315 223.938C69.7435 224.49 69.8995 225.15 69.8995 225.918H67.1815C67.1815 225.546 67.0975 225.216 66.9295 224.928C66.7735 224.64 66.5515 224.4 66.2635 224.208C65.9755 224.016 65.6455 223.872 65.2735 223.776C64.9015 223.68 64.5115 223.632 64.1035 223.632C63.4795 223.632 62.9335 223.716 62.4655 223.884C61.9975 224.04 61.6075 224.286 61.2955 224.622C60.9955 224.946 60.7675 225.354 60.6115 225.846C60.4555 226.338 60.3775 226.908 60.3775 227.556V228.096C60.3775 228.996 60.5095 229.734 60.7735 230.31C61.0375 230.886 61.4335 231.318 61.9615 231.606C62.4895 231.882 63.1435 232.02 63.9235 232.02C64.5715 232.02 65.1415 231.924 65.6335 231.732C66.1375 231.528 66.5275 231.24 66.8035 230.868C67.0915 230.496 67.2355 230.04 67.2355 229.5V229.374H63.5455V227.322H69.8995V234H68.1355L67.9015 232.668C67.5415 233.016 67.1515 233.304 66.7315 233.532C66.3235 233.76 65.8675 233.928 65.3635 234.036C64.8595 234.156 64.2955 234.216 63.6715 234.216ZM77.8331 234.216C76.7051 234.216 75.7331 234.036 74.9171 233.676C74.1131 233.316 73.4951 232.776 73.0631 232.056C72.6311 231.324 72.4151 230.418 72.4151 229.338V221.652H75.1151V229.266C75.1151 230.154 75.3491 230.838 75.8171 231.318C76.2851 231.786 76.9571 232.02 77.8331 232.02C78.7091 232.02 79.3811 231.786 79.8491 231.318C80.3291 230.838 80.5691 230.154 80.5691 229.266V221.652H83.2691V229.338C83.2691 230.418 83.0531 231.324 82.6211 232.056C82.1891 232.776 81.5651 233.316 80.7491 233.676C79.9451 234.036 78.9731 234.216 77.8331 234.216ZM84.4283 234L89.1803 221.652H92.4923L97.2443 234H94.3463L93.4643 231.57H88.0823L87.2003 234H84.4283ZM88.8563 229.41H92.6903L91.5923 226.368C91.5443 226.236 91.4843 226.08 91.4123 225.9C91.3523 225.708 91.2863 225.498 91.2143 225.27C91.1423 225.042 91.0703 224.82 90.9983 224.604C90.9383 224.376 90.8783 224.172 90.8183 223.992H90.7103C90.6503 224.22 90.5723 224.49 90.4763 224.802C90.3803 225.102 90.2843 225.396 90.1883 225.684C90.0923 225.96 90.0143 226.188 89.9543 226.368L88.8563 229.41ZM104.048 234.216C102.104 234.216 100.604 233.7 99.5485 232.668C98.5045 231.624 97.9825 230.01 97.9825 227.826C97.9825 226.374 98.2345 225.18 98.7385 224.244C99.2425 223.296 99.9745 222.594 100.934 222.138C101.894 221.67 103.046 221.436 104.39 221.436C105.194 221.436 105.95 221.526 106.658 221.706C107.366 221.886 107.99 222.162 108.53 222.534C109.082 222.906 109.508 223.374 109.808 223.938C110.12 224.49 110.276 225.15 110.276 225.918H107.558C107.558 225.546 107.474 225.216 107.306 224.928C107.15 224.64 106.928 224.4 106.64 224.208C106.352 224.016 106.022 223.872 105.65 223.776C105.278 223.68 104.888 223.632 104.48 223.632C103.856 223.632 103.31 223.716 102.842 223.884C102.374 224.04 101.984 224.286 101.672 224.622C101.372 224.946 101.144 225.354 100.988 225.846C100.832 226.338 100.754 226.908 100.754 227.556V228.096C100.754 228.996 100.886 229.734 101.15 230.31C101.414 230.886 101.81 231.318 102.338 231.606C102.866 231.882 103.52 232.02 104.3 232.02C104.948 232.02 105.518 231.924 106.01 231.732C106.514 231.528 106.904 231.24 107.18 230.868C107.468 230.496 107.612 230.04 107.612 229.5V229.374H103.922V227.322H110.276V234H108.512L108.278 232.668C107.918 233.016 107.528 233.304 107.108 233.532C106.7 233.76 106.244 233.928 105.74 234.036C105.236 234.156 104.672 234.216 104.048 234.216ZM112.864 234V221.652H122.728V223.848H115.564V226.602H121.9V228.78H115.564V231.786H122.836V234H112.864ZM129.957 234.216C129.237 234.216 128.553 234.144 127.905 234C127.257 233.856 126.681 233.628 126.177 233.316C125.685 232.992 125.295 232.59 125.007 232.11C124.731 231.618 124.593 231.024 124.593 230.328C124.593 230.268 124.593 230.208 124.593 230.148C124.593 230.076 124.599 230.022 124.611 229.986H127.275C127.263 230.022 127.257 230.07 127.257 230.13C127.257 230.19 127.257 230.244 127.257 230.292C127.257 230.676 127.359 231 127.563 231.264C127.779 231.528 128.091 231.726 128.499 231.858C128.907 231.99 129.381 232.056 129.921 232.056C130.269 232.056 130.575 232.038 130.839 232.002C131.115 231.954 131.355 231.894 131.559 231.822C131.775 231.738 131.949 231.642 132.081 231.534C132.225 231.426 132.327 231.3 132.387 231.156C132.459 231.012 132.495 230.85 132.495 230.67C132.495 230.346 132.387 230.082 132.171 229.878C131.967 229.674 131.679 229.5 131.307 229.356C130.947 229.212 130.539 229.08 130.083 228.96C129.627 228.84 129.159 228.72 128.679 228.6C128.199 228.468 127.731 228.312 127.275 228.132C126.819 227.94 126.411 227.712 126.051 227.448C125.691 227.184 125.403 226.848 125.187 226.44C124.971 226.032 124.863 225.54 124.863 224.964C124.863 224.352 124.989 223.824 125.241 223.38C125.505 222.936 125.871 222.57 126.339 222.282C126.807 221.994 127.347 221.784 127.959 221.652C128.571 221.508 129.237 221.436 129.957 221.436C130.629 221.436 131.265 221.508 131.865 221.652C132.465 221.784 132.993 222 133.449 222.3C133.905 222.6 134.259 222.978 134.511 223.434C134.775 223.89 134.907 224.43 134.907 225.054V225.27H132.297V225.126C132.297 224.802 132.201 224.526 132.009 224.298C131.817 224.07 131.547 223.89 131.199 223.758C130.851 223.626 130.443 223.56 129.975 223.56C129.471 223.56 129.039 223.608 128.679 223.704C128.331 223.8 128.061 223.944 127.869 224.136C127.689 224.316 127.599 224.532 127.599 224.784C127.599 225.072 127.701 225.312 127.905 225.504C128.121 225.684 128.409 225.846 128.769 225.99C129.141 226.122 129.555 226.242 130.011 226.35C130.467 226.458 130.935 226.578 131.415 226.71C131.895 226.842 132.363 226.998 132.819 227.178C133.275 227.358 133.683 227.586 134.043 227.862C134.403 228.126 134.691 228.456 134.907 228.852C135.123 229.248 135.231 229.722 135.231 230.274C135.231 231.222 135.003 231.984 134.547 232.56C134.091 233.136 133.467 233.556 132.675 233.82C131.883 234.084 130.977 234.216 129.957 234.216Z" fill="white"/>
<path d="M366.868 291V278.652H373.294C374.182 278.652 374.92 278.82 375.508 279.156C376.108 279.48 376.558 279.942 376.858 280.542C377.17 281.13 377.326 281.832 377.326 282.648C377.326 283.464 377.164 284.178 376.84 284.79C376.528 285.39 376.066 285.858 375.454 286.194C374.842 286.53 374.092 286.698 373.204 286.698H369.55V291H366.868ZM369.55 284.502H372.844C373.408 284.502 373.84 284.34 374.14 284.016C374.452 283.692 374.608 283.242 374.608 282.666C374.608 282.27 374.542 281.94 374.41 281.676C374.278 281.412 374.08 281.208 373.816 281.064C373.564 280.92 373.24 280.848 372.844 280.848H369.55V284.502ZM384.466 291.216C383.338 291.216 382.366 291.036 381.55 290.676C380.746 290.316 380.128 289.776 379.696 289.056C379.264 288.324 379.048 287.418 379.048 286.338V278.652H381.748V286.266C381.748 287.154 381.982 287.838 382.45 288.318C382.918 288.786 383.59 289.02 384.466 289.02C385.342 289.02 386.014 288.786 386.482 288.318C386.962 287.838 387.202 287.154 387.202 286.266V278.652H389.902V286.338C389.902 287.418 389.686 288.324 389.254 289.056C388.822 289.776 388.198 290.316 387.382 290.676C386.578 291.036 385.606 291.216 384.466 291.216ZM392.585 291V278.652H399.641C400.289 278.652 400.871 278.778 401.387 279.03C401.915 279.282 402.329 279.636 402.629 280.092C402.929 280.548 403.079 281.082 403.079 281.694C403.079 282.186 402.989 282.624 402.809 283.008C402.629 283.392 402.383 283.71 402.071 283.962C401.771 284.214 401.429 284.4 401.045 284.52V284.592C401.501 284.688 401.903 284.868 402.251 285.132C402.611 285.396 402.893 285.738 403.097 286.158C403.313 286.566 403.421 287.052 403.421 287.616C403.421 288.36 403.247 288.984 402.899 289.488C402.563 289.992 402.113 290.37 401.549 290.622C400.985 290.874 400.355 291 399.659 291H392.585ZM395.267 288.804H399.137C399.581 288.804 399.941 288.678 400.217 288.426C400.505 288.174 400.649 287.784 400.649 287.256C400.649 286.944 400.589 286.674 400.469 286.446C400.349 286.218 400.169 286.044 399.929 285.924C399.689 285.792 399.383 285.726 399.011 285.726H395.267V288.804ZM395.267 283.638H398.831C399.155 283.638 399.425 283.578 399.641 283.458C399.869 283.326 400.037 283.158 400.145 282.954C400.265 282.738 400.325 282.492 400.325 282.216C400.325 281.748 400.193 281.394 399.929 281.154C399.677 280.914 399.341 280.794 398.921 280.794H395.267V283.638ZM405.575 291V278.652H408.257V288.714H414.485V291H405.575ZM416.21 291V278.652H418.892V291H416.21ZM427.15 291.216C425.866 291.216 424.768 290.994 423.856 290.55C422.944 290.094 422.248 289.392 421.768 288.444C421.3 287.496 421.066 286.29 421.066 284.826C421.066 282.666 421.594 281.064 422.65 280.02C423.718 278.964 425.218 278.436 427.15 278.436C428.206 278.436 429.154 278.616 429.994 278.976C430.834 279.336 431.494 279.876 431.974 280.596C432.466 281.316 432.712 282.222 432.712 283.314H430.012C430.012 282.738 429.892 282.252 429.652 281.856C429.424 281.46 429.094 281.16 428.662 280.956C428.242 280.74 427.75 280.632 427.186 280.632C426.418 280.632 425.782 280.782 425.278 281.082C424.786 281.382 424.42 281.826 424.18 282.414C423.952 282.99 423.838 283.698 423.838 284.538V285.096C423.838 285.96 423.958 286.686 424.198 287.274C424.438 287.85 424.798 288.288 425.278 288.588C425.77 288.876 426.4 289.02 427.168 289.02C427.768 289.02 428.29 288.918 428.734 288.714C429.178 288.51 429.52 288.21 429.76 287.814C430 287.418 430.12 286.932 430.12 286.356H432.712C432.712 287.448 432.472 288.354 431.992 289.074C431.524 289.794 430.87 290.334 430.03 290.694C429.19 291.042 428.23 291.216 427.15 291.216ZM433.495 291L438.247 278.652H441.559L446.311 291H443.413L442.531 288.57H437.149L436.267 291H433.495ZM437.923 286.41H441.757L440.659 283.368C440.611 283.236 440.551 283.08 440.479 282.9C440.419 282.708 440.353 282.498 440.281 282.27C440.209 282.042 440.137 281.82 440.065 281.604C440.005 281.376 439.945 281.172 439.885 280.992H439.777C439.717 281.22 439.639 281.49 439.543 281.802C439.447 282.102 439.351 282.396 439.255 282.684C439.159 282.96 439.081 283.188 439.021 283.368L437.923 286.41ZM449.31 291V280.902H445.35V278.652H455.988V280.902H452.01V291H449.31ZM457.8 291V278.652H460.482V291H457.8ZM468.974 291.216C467.666 291.216 466.538 290.982 465.59 290.514C464.642 290.046 463.916 289.338 463.412 288.39C462.908 287.442 462.656 286.254 462.656 284.826C462.656 283.374 462.908 282.18 463.412 281.244C463.916 280.296 464.642 279.594 465.59 279.138C466.538 278.67 467.666 278.436 468.974 278.436C470.306 278.436 471.44 278.67 472.376 279.138C473.324 279.594 474.05 280.296 474.554 281.244C475.058 282.18 475.31 283.374 475.31 284.826C475.31 286.254 475.058 287.442 474.554 288.39C474.05 289.338 473.324 290.046 472.376 290.514C471.44 290.982 470.306 291.216 468.974 291.216ZM468.974 289.02C469.562 289.02 470.078 288.936 470.522 288.768C470.966 288.6 471.338 288.348 471.638 288.012C471.938 287.676 472.166 287.268 472.322 286.788C472.478 286.296 472.556 285.738 472.556 285.114V284.556C472.556 283.92 472.478 283.356 472.322 282.864C472.166 282.372 471.938 281.964 471.638 281.64C471.338 281.304 470.966 281.052 470.522 280.884C470.078 280.716 469.562 280.632 468.974 280.632C468.398 280.632 467.888 280.716 467.444 280.884C467 281.052 466.628 281.304 466.328 281.64C466.028 281.964 465.8 282.372 465.644 282.864C465.5 283.356 465.428 283.92 465.428 284.556V285.114C465.428 285.738 465.5 286.296 465.644 286.788C465.8 287.268 466.028 287.676 466.328 288.012C466.628 288.348 467 288.6 467.444 288.768C467.888 288.936 468.398 289.02 468.974 289.02ZM477.487 291V278.652H479.953L484.921 285.312C484.993 285.396 485.083 285.516 485.191 285.672C485.299 285.816 485.401 285.96 485.497 286.104C485.593 286.248 485.659 286.362 485.695 286.446H485.785C485.785 286.242 485.785 286.044 485.785 285.852C485.785 285.648 485.785 285.468 485.785 285.312V278.652H488.323V291H485.857L480.781 284.178C480.661 284.01 480.535 283.824 480.403 283.62C480.271 283.416 480.175 283.26 480.115 283.152H480.025C480.025 283.332 480.025 283.512 480.025 283.692C480.025 283.86 480.025 284.022 480.025 284.178V291H477.487ZM495.863 291.216C495.143 291.216 494.459 291.144 493.811 291C493.163 290.856 492.587 290.628 492.083 290.316C491.591 289.992 491.201 289.59 490.913 289.11C490.637 288.618 490.499 288.024 490.499 287.328C490.499 287.268 490.499 287.208 490.499 287.148C490.499 287.076 490.505 287.022 490.517 286.986H493.181C493.169 287.022 493.163 287.07 493.163 287.13C493.163 287.19 493.163 287.244 493.163 287.292C493.163 287.676 493.265 288 493.469 288.264C493.685 288.528 493.997 288.726 494.405 288.858C494.813 288.99 495.287 289.056 495.827 289.056C496.175 289.056 496.481 289.038 496.745 289.002C497.021 288.954 497.261 288.894 497.465 288.822C497.681 288.738 497.855 288.642 497.987 288.534C498.131 288.426 498.233 288.3 498.293 288.156C498.365 288.012 498.401 287.85 498.401 287.67C498.401 287.346 498.293 287.082 498.077 286.878C497.873 286.674 497.585 286.5 497.213 286.356C496.853 286.212 496.445 286.08 495.989 285.96C495.533 285.84 495.065 285.72 494.585 285.6C494.105 285.468 493.637 285.312 493.181 285.132C492.725 284.94 492.317 284.712 491.957 284.448C491.597 284.184 491.309 283.848 491.093 283.44C490.877 283.032 490.769 282.54 490.769 281.964C490.769 281.352 490.895 280.824 491.147 280.38C491.411 279.936 491.777 279.57 492.245 279.282C492.713 278.994 493.253 278.784 493.865 278.652C494.477 278.508 495.143 278.436 495.863 278.436C496.535 278.436 497.171 278.508 497.771 278.652C498.371 278.784 498.899 279 499.355 279.3C499.811 279.6 500.165 279.978 500.417 280.434C500.681 280.89 500.813 281.43 500.813 282.054V282.27H498.203V282.126C498.203 281.802 498.107 281.526 497.915 281.298C497.723 281.07 497.453 280.89 497.105 280.758C496.757 280.626 496.349 280.56 495.881 280.56C495.377 280.56 494.945 280.608 494.585 280.704C494.237 280.8 493.967 280.944 493.775 281.136C493.595 281.316 493.505 281.532 493.505 281.784C493.505 282.072 493.607 282.312 493.811 282.504C494.027 282.684 494.315 282.846 494.675 282.99C495.047 283.122 495.461 283.242 495.917 283.35C496.373 283.458 496.841 283.578 497.321 283.71C497.801 283.842 498.269 283.998 498.725 284.178C499.181 284.358 499.589 284.586 499.949 284.862C500.309 285.126 500.597 285.456 500.813 285.852C501.029 286.248 501.137 286.722 501.137 287.274C501.137 288.222 500.909 288.984 500.453 289.56C499.997 290.136 499.373 290.556 498.581 290.82C497.789 291.084 496.883 291.216 495.863 291.216Z" fill="white"/>
<path d="M249.484 341.216C247.54 341.216 246.04 340.7 244.984 339.668C243.94 338.624 243.418 337.01 243.418 334.826C243.418 333.374 243.67 332.18 244.174 331.244C244.678 330.296 245.41 329.594 246.37 329.138C247.33 328.67 248.482 328.436 249.826 328.436C250.63 328.436 251.386 328.526 252.094 328.706C252.802 328.886 253.426 329.162 253.966 329.534C254.518 329.906 254.944 330.374 255.244 330.938C255.556 331.49 255.712 332.15 255.712 332.918H252.994C252.994 332.546 252.91 332.216 252.742 331.928C252.586 331.64 252.364 331.4 252.076 331.208C251.788 331.016 251.458 330.872 251.086 330.776C250.714 330.68 250.324 330.632 249.916 330.632C249.292 330.632 248.746 330.716 248.278 330.884C247.81 331.04 247.42 331.286 247.108 331.622C246.808 331.946 246.58 332.354 246.424 332.846C246.268 333.338 246.19 333.908 246.19 334.556V335.096C246.19 335.996 246.322 336.734 246.586 337.31C246.85 337.886 247.246 338.318 247.774 338.606C248.302 338.882 248.956 339.02 249.736 339.02C250.384 339.02 250.954 338.924 251.446 338.732C251.95 338.528 252.34 338.24 252.616 337.868C252.904 337.496 253.048 337.04 253.048 336.5V336.374H249.358V334.322H255.712V341H253.948L253.714 339.668C253.354 340.016 252.964 340.304 252.544 340.532C252.136 340.76 251.68 340.928 251.176 341.036C250.672 341.156 250.108 341.216 249.484 341.216ZM264.06 341.216C262.752 341.216 261.624 340.982 260.676 340.514C259.728 340.046 259.002 339.338 258.498 338.39C257.994 337.442 257.742 336.254 257.742 334.826C257.742 333.374 257.994 332.18 258.498 331.244C259.002 330.296 259.728 329.594 260.676 329.138C261.624 328.67 262.752 328.436 264.06 328.436C265.392 328.436 266.526 328.67 267.462 329.138C268.41 329.594 269.136 330.296 269.64 331.244C270.144 332.18 270.396 333.374 270.396 334.826C270.396 336.254 270.144 337.442 269.64 338.39C269.136 339.338 268.41 340.046 267.462 340.514C266.526 340.982 265.392 341.216 264.06 341.216ZM264.06 339.02C264.648 339.02 265.164 338.936 265.608 338.768C266.052 338.6 266.424 338.348 266.724 338.012C267.024 337.676 267.252 337.268 267.408 336.788C267.564 336.296 267.642 335.738 267.642 335.114V334.556C267.642 333.92 267.564 333.356 267.408 332.864C267.252 332.372 267.024 331.964 266.724 331.64C266.424 331.304 266.052 331.052 265.608 330.884C265.164 330.716 264.648 330.632 264.06 330.632C263.484 330.632 262.974 330.716 262.53 330.884C262.086 331.052 261.714 331.304 261.414 331.64C261.114 331.964 260.886 332.372 260.73 332.864C260.586 333.356 260.514 333.92 260.514 334.556V335.114C260.514 335.738 260.586 336.296 260.73 336.788C260.886 337.268 261.114 337.676 261.414 338.012C261.714 338.348 262.086 338.6 262.53 338.768C262.974 338.936 263.484 339.02 264.06 339.02ZM271.032 341L275.784 328.652H279.096L283.848 341H280.95L280.068 338.57H274.686L273.804 341H271.032ZM275.46 336.41H279.294L278.196 333.368C278.148 333.236 278.088 333.08 278.016 332.9C277.956 332.708 277.89 332.498 277.818 332.27C277.746 332.042 277.674 331.82 277.602 331.604C277.542 331.376 277.482 331.172 277.422 330.992H277.314C277.254 331.22 277.176 331.49 277.08 331.802C276.984 332.102 276.888 332.396 276.792 332.684C276.696 332.96 276.618 333.188 276.558 333.368L275.46 336.41ZM285.317 341V328.652H287.999V338.714H294.227V341H285.317ZM300.758 341.216C300.038 341.216 299.354 341.144 298.706 341C298.058 340.856 297.482 340.628 296.978 340.316C296.486 339.992 296.096 339.59 295.808 339.11C295.532 338.618 295.394 338.024 295.394 337.328C295.394 337.268 295.394 337.208 295.394 337.148C295.394 337.076 295.4 337.022 295.412 336.986H298.076C298.064 337.022 298.058 337.07 298.058 337.13C298.058 337.19 298.058 337.244 298.058 337.292C298.058 337.676 298.16 338 298.364 338.264C298.58 338.528 298.892 338.726 299.3 338.858C299.708 338.99 300.182 339.056 300.722 339.056C301.07 339.056 301.376 339.038 301.64 339.002C301.916 338.954 302.156 338.894 302.36 338.822C302.576 338.738 302.75 338.642 302.882 338.534C303.026 338.426 303.128 338.3 303.188 338.156C303.26 338.012 303.296 337.85 303.296 337.67C303.296 337.346 303.188 337.082 302.972 336.878C302.768 336.674 302.48 336.5 302.108 336.356C301.748 336.212 301.34 336.08 300.884 335.96C300.428 335.84 299.96 335.72 299.48 335.6C299 335.468 298.532 335.312 298.076 335.132C297.62 334.94 297.212 334.712 296.852 334.448C296.492 334.184 296.204 333.848 295.988 333.44C295.772 333.032 295.664 332.54 295.664 331.964C295.664 331.352 295.79 330.824 296.042 330.38C296.306 329.936 296.672 329.57 297.14 329.282C297.608 328.994 298.148 328.784 298.76 328.652C299.372 328.508 300.038 328.436 300.758 328.436C301.43 328.436 302.066 328.508 302.666 328.652C303.266 328.784 303.794 329 304.25 329.3C304.706 329.6 305.06 329.978 305.312 330.434C305.576 330.89 305.708 331.43 305.708 332.054V332.27H303.098V332.126C303.098 331.802 303.002 331.526 302.81 331.298C302.618 331.07 302.348 330.89 302 330.758C301.652 330.626 301.244 330.56 300.776 330.56C300.272 330.56 299.84 330.608 299.48 330.704C299.132 330.8 298.862 330.944 298.67 331.136C298.49 331.316 298.4 331.532 298.4 331.784C298.4 332.072 298.502 332.312 298.706 332.504C298.922 332.684 299.21 332.846 299.57 332.99C299.942 333.122 300.356 333.242 300.812 333.35C301.268 333.458 301.736 333.578 302.216 333.71C302.696 333.842 303.164 333.998 303.62 334.178C304.076 334.358 304.484 334.586 304.844 334.862C305.204 335.126 305.492 335.456 305.708 335.852C305.924 336.248 306.032 336.722 306.032 337.274C306.032 338.222 305.804 338.984 305.348 339.56C304.892 340.136 304.268 340.556 303.476 340.82C302.684 341.084 301.778 341.216 300.758 341.216Z" fill="white"/>
<path d="M248.094 16.216C247.374 16.216 246.69 16.144 246.042 16C245.394 15.856 244.818 15.628 244.314 15.316C243.822 14.992 243.432 14.59 243.144 14.11C242.868 13.618 242.73 13.024 242.73 12.328C242.73 12.268 242.73 12.208 242.73 12.148C242.73 12.076 242.736 12.022 242.748 11.986H245.412C245.4 12.022 245.394 12.07 245.394 12.13C245.394 12.19 245.394 12.244 245.394 12.292C245.394 12.676 245.496 13 245.7 13.264C245.916 13.528 246.228 13.726 246.636 13.858C247.044 13.99 247.518 14.056 248.058 14.056C248.406 14.056 248.712 14.038 248.976 14.002C249.252 13.954 249.492 13.894 249.696 13.822C249.912 13.738 250.086 13.642 250.218 13.534C250.362 13.426 250.464 13.3 250.524 13.156C250.596 13.012 250.632 12.85 250.632 12.67C250.632 12.346 250.524 12.082 250.308 11.878C250.104 11.674 249.816 11.5 249.444 11.356C249.084 11.212 248.676 11.08 248.22 10.96C247.764 10.84 247.296 10.72 246.816 10.6C246.336 10.468 245.868 10.312 245.412 10.132C244.956 9.94 244.548 9.712 244.188 9.448C243.828 9.184 243.54 8.848 243.324 8.44C243.108 8.032 243 7.54 243 6.964C243 6.352 243.126 5.824 243.378 5.38C243.642 4.936 244.008 4.57 244.476 4.282C244.944 3.994 245.484 3.784 246.096 3.652C246.708 3.508 247.374 3.436 248.094 3.436C248.766 3.436 249.402 3.508 250.002 3.652C250.602 3.784 251.13 4 251.586 4.3C252.042 4.6 252.396 4.978 252.648 5.434C252.912 5.89 253.044 6.43 253.044 7.054V7.27H250.434V7.126C250.434 6.802 250.338 6.526 250.146 6.298C249.954 6.07 249.684 5.89 249.336 5.758C248.988 5.626 248.58 5.56 248.112 5.56C247.608 5.56 247.176 5.608 246.816 5.704C246.468 5.8 246.198 5.944 246.006 6.136C245.826 6.316 245.736 6.532 245.736 6.784C245.736 7.072 245.838 7.312 246.042 7.504C246.258 7.684 246.546 7.846 246.906 7.99C247.278 8.122 247.692 8.242 248.148 8.35C248.604 8.458 249.072 8.578 249.552 8.71C250.032 8.842 250.5 8.998 250.956 9.178C251.412 9.358 251.82 9.586 252.18 9.862C252.54 10.126 252.828 10.456 253.044 10.852C253.26 11.248 253.368 11.722 253.368 12.274C253.368 13.222 253.14 13.984 252.684 14.56C252.228 15.136 251.604 15.556 250.812 15.82C250.02 16.084 249.114 16.216 248.094 16.216ZM255.505 16V3.652H258.187V9.268L263.443 3.652H266.755L262.039 8.674L266.845 16H263.641L260.185 10.528L258.187 12.328V16H255.505ZM268.548 16V3.652H271.23V16H268.548ZM273.962 16V3.652H276.644V13.714H282.872V16H273.962ZM284.597 16V3.652H287.279V13.714H293.507V16H284.597ZM300.037 16.216C299.317 16.216 298.633 16.144 297.985 16C297.337 15.856 296.761 15.628 296.257 15.316C295.765 14.992 295.375 14.59 295.087 14.11C294.811 13.618 294.673 13.024 294.673 12.328C294.673 12.268 294.673 12.208 294.673 12.148C294.673 12.076 294.679 12.022 294.691 11.986H297.355C297.343 12.022 297.337 12.07 297.337 12.13C297.337 12.19 297.337 12.244 297.337 12.292C297.337 12.676 297.439 13 297.643 13.264C297.859 13.528 298.171 13.726 298.579 13.858C298.987 13.99 299.461 14.056 300.001 14.056C300.349 14.056 300.655 14.038 300.919 14.002C301.195 13.954 301.435 13.894 301.639 13.822C301.855 13.738 302.029 13.642 302.161 13.534C302.305 13.426 302.407 13.3 302.467 13.156C302.539 13.012 302.575 12.85 302.575 12.67C302.575 12.346 302.467 12.082 302.251 11.878C302.047 11.674 301.759 11.5 301.387 11.356C301.027 11.212 300.619 11.08 300.163 10.96C299.707 10.84 299.239 10.72 298.759 10.6C298.279 10.468 297.811 10.312 297.355 10.132C296.899 9.94 296.491 9.712 296.131 9.448C295.771 9.184 295.483 8.848 295.267 8.44C295.051 8.032 294.943 7.54 294.943 6.964C294.943 6.352 295.069 5.824 295.321 5.38C295.585 4.936 295.951 4.57 296.419 4.282C296.887 3.994 297.427 3.784 298.039 3.652C298.651 3.508 299.317 3.436 300.037 3.436C300.709 3.436 301.345 3.508 301.945 3.652C302.545 3.784 303.073 4 303.529 4.3C303.985 4.6 304.339 4.978 304.591 5.434C304.855 5.89 304.987 6.43 304.987 7.054V7.27H302.377V7.126C302.377 6.802 302.281 6.526 302.089 6.298C301.897 6.07 301.627 5.89 301.279 5.758C300.931 5.626 300.523 5.56 300.055 5.56C299.551 5.56 299.119 5.608 298.759 5.704C298.411 5.8 298.141 5.944 297.949 6.136C297.769 6.316 297.679 6.532 297.679 6.784C297.679 7.072 297.781 7.312 297.985 7.504C298.201 7.684 298.489 7.846 298.849 7.99C299.221 8.122 299.635 8.242 300.091 8.35C300.547 8.458 301.015 8.578 301.495 8.71C301.975 8.842 302.443 8.998 302.899 9.178C303.355 9.358 303.763 9.586 304.123 9.862C304.483 10.126 304.771 10.456 304.987 10.852C305.203 11.248 305.311 11.722 305.311 12.274C305.311 13.222 305.083 13.984 304.627 14.56C304.171 15.136 303.547 15.556 302.755 15.82C301.963 16.084 301.057 16.216 300.037 16.216Z" fill="white"/>
<path d="M36.3033 291L41.0553 278.652H44.3673L49.1193 291H46.2213L45.3393 288.57H39.9573L39.0753 291H36.3033ZM40.7313 286.41H44.5653L43.4673 283.368C43.4193 283.236 43.3593 283.08 43.2873 282.9C43.2273 282.708 43.1613 282.498 43.0893 282.27C43.0173 282.042 42.9453 281.82 42.8733 281.604C42.8133 281.376 42.7533 281.172 42.6933 280.992H42.5853C42.5253 281.22 42.4473 281.49 42.3513 281.802C42.2553 282.102 42.1593 282.396 42.0633 282.684C41.9673 282.96 41.8893 283.188 41.8293 283.368L40.7313 286.41ZM55.8335 291.216C54.5495 291.216 53.4515 290.994 52.5395 290.55C51.6275 290.094 50.9315 289.392 50.4515 288.444C49.9835 287.496 49.7495 286.29 49.7495 284.826C49.7495 282.666 50.2775 281.064 51.3335 280.02C52.4015 278.964 53.9015 278.436 55.8335 278.436C56.8895 278.436 57.8375 278.616 58.6775 278.976C59.5175 279.336 60.1775 279.876 60.6575 280.596C61.1495 281.316 61.3955 282.222 61.3955 283.314H58.6955C58.6955 282.738 58.5755 282.252 58.3355 281.856C58.1075 281.46 57.7775 281.16 57.3455 280.956C56.9255 280.74 56.4335 280.632 55.8695 280.632C55.1015 280.632 54.4655 280.782 53.9615 281.082C53.4695 281.382 53.1035 281.826 52.8635 282.414C52.6355 282.99 52.5215 283.698 52.5215 284.538V285.096C52.5215 285.96 52.6415 286.686 52.8815 287.274C53.1215 287.85 53.4815 288.288 53.9615 288.588C54.4535 288.876 55.0835 289.02 55.8515 289.02C56.4515 289.02 56.9735 288.918 57.4175 288.714C57.8615 288.51 58.2035 288.21 58.4435 287.814C58.6835 287.418 58.8035 286.932 58.8035 286.356H61.3955C61.3955 287.448 61.1555 288.354 60.6755 289.074C60.2075 289.794 59.5535 290.334 58.7135 290.694C57.8735 291.042 56.9135 291.216 55.8335 291.216ZM63.5086 291V278.652H66.1906V283.548H71.6626V278.652H74.3446V291H71.6626V285.816H66.1906V291H63.5086ZM77.0789 291V278.652H79.7609V291H77.0789ZM82.493 291V278.652H92.357V280.848H85.193V283.602H91.529V285.78H85.193V288.786H92.465V291H82.493ZM98.0921 291L93.6281 278.652H96.5261L99.1901 286.536C99.2381 286.668 99.2921 286.83 99.3521 287.022C99.4121 287.202 99.4721 287.382 99.5321 287.562C99.5921 287.742 99.6401 287.904 99.6761 288.048H99.7841C99.8321 287.916 99.8801 287.766 99.9281 287.598C99.9881 287.418 100.042 287.238 100.09 287.058C100.15 286.878 100.204 286.71 100.252 286.554L102.916 278.652H105.706L101.224 291H98.0921ZM107.278 291V278.652H117.142V280.848H109.978V283.602H116.314V285.78H109.978V288.786H117.25V291H107.278ZM119.565 291V278.652H123.651L125.415 284.97C125.487 285.198 125.559 285.468 125.631 285.78C125.703 286.092 125.775 286.404 125.847 286.716C125.931 287.016 125.997 287.286 126.045 287.526H126.189C126.213 287.322 126.255 287.082 126.315 286.806C126.375 286.518 126.441 286.212 126.513 285.888C126.585 285.564 126.663 285.252 126.747 284.952L128.511 278.652H132.525V291H129.879V285.15C129.879 284.61 129.879 284.07 129.879 283.53C129.891 282.978 129.903 282.498 129.915 282.09C129.939 281.682 129.951 281.418 129.951 281.298H129.807C129.783 281.43 129.723 281.676 129.627 282.036C129.543 282.384 129.447 282.756 129.339 283.152C129.243 283.548 129.153 283.89 129.069 284.178L127.143 291H124.803L122.859 284.196C122.787 283.944 122.703 283.65 122.607 283.314C122.523 282.966 122.439 282.612 122.355 282.252C122.283 281.88 122.211 281.562 122.139 281.298H121.995C122.007 281.622 122.019 282.012 122.031 282.468C122.043 282.912 122.055 283.374 122.067 283.854C122.079 284.322 122.085 284.754 122.085 285.15V291H119.565ZM135.263 291V278.652H145.127V280.848H137.963V283.602H144.299V285.78H137.963V288.786H145.235V291H135.263ZM147.55 291V278.652H150.016L154.984 285.312C155.056 285.396 155.146 285.516 155.254 285.672C155.362 285.816 155.464 285.96 155.56 286.104C155.656 286.248 155.722 286.362 155.758 286.446H155.848C155.848 286.242 155.848 286.044 155.848 285.852C155.848 285.648 155.848 285.468 155.848 285.312V278.652H158.386V291H155.92L150.844 284.178C150.724 284.01 150.598 283.824 150.466 283.62C150.334 283.416 150.238 283.26 150.178 283.152H150.088C150.088 283.332 150.088 283.512 150.088 283.692C150.088 283.86 150.088 284.022 150.088 284.178V291H147.55ZM164.162 291V280.902H160.202V278.652H170.84V280.902H166.862V291H164.162ZM177.457 291.216C176.737 291.216 176.053 291.144 175.405 291C174.757 290.856 174.181 290.628 173.677 290.316C173.185 289.992 172.795 289.59 172.507 289.11C172.231 288.618 172.093 288.024 172.093 287.328C172.093 287.268 172.093 287.208 172.093 287.148C172.093 287.076 172.099 287.022 172.111 286.986H174.775C174.763 287.022 174.757 287.07 174.757 287.13C174.757 287.19 174.757 287.244 174.757 287.292C174.757 287.676 174.859 288 175.063 288.264C175.279 288.528 175.591 288.726 175.999 288.858C176.407 288.99 176.881 289.056 177.421 289.056C177.769 289.056 178.075 289.038 178.339 289.002C178.615 288.954 178.855 288.894 179.059 288.822C179.275 288.738 179.449 288.642 179.581 288.534C179.725 288.426 179.827 288.3 179.887 288.156C179.959 288.012 179.995 287.85 179.995 287.67C179.995 287.346 179.887 287.082 179.671 286.878C179.467 286.674 179.179 286.5 178.807 286.356C178.447 286.212 178.039 286.08 177.583 285.96C177.127 285.84 176.659 285.72 176.179 285.6C175.699 285.468 175.231 285.312 174.775 285.132C174.319 284.94 173.911 284.712 173.551 284.448C173.191 284.184 172.903 283.848 172.687 283.44C172.471 283.032 172.363 282.54 172.363 281.964C172.363 281.352 172.489 280.824 172.741 280.38C173.005 279.936 173.371 279.57 173.839 279.282C174.307 278.994 174.847 278.784 175.459 278.652C176.071 278.508 176.737 278.436 177.457 278.436C178.129 278.436 178.765 278.508 179.365 278.652C179.965 278.784 180.493 279 180.949 279.3C181.405 279.6 181.759 279.978 182.011 280.434C182.275 280.89 182.407 281.43 182.407 282.054V282.27H179.797V282.126C179.797 281.802 179.701 281.526 179.509 281.298C179.317 281.07 179.047 280.89 178.699 280.758C178.351 280.626 177.943 280.56 177.475 280.56C176.971 280.56 176.539 280.608 176.179 280.704C175.831 280.8 175.561 280.944 175.369 281.136C175.189 281.316 175.099 281.532 175.099 281.784C175.099 282.072 175.201 282.312 175.405 282.504C175.621 282.684 175.909 282.846 176.269 282.99C176.641 283.122 177.055 283.242 177.511 283.35C177.967 283.458 178.435 283.578 178.915 283.71C179.395 283.842 179.863 283.998 180.319 284.178C180.775 284.358 181.183 284.586 181.543 284.862C181.903 285.126 182.191 285.456 182.407 285.852C182.623 286.248 182.731 286.722 182.731 287.274C182.731 288.222 182.503 288.984 182.047 289.56C181.591 290.136 180.967 290.556 180.175 290.82C179.383 291.084 178.477 291.216 177.457 291.216Z" fill="white"/>
<path d="M327 83L357.243 52.7574C358.368 51.6321 359.894 51 361.485 51H501.5" stroke="#828DA9" stroke-linecap="round"/>
<path d="M221.5 83L191.257 52.7574C190.132 51.6321 188.606 51 187.015 51H37.5" stroke="#828DA9" stroke-linecap="round"/>
<path d="M372 137L402.243 106.757C403.368 105.632 404.894 105 406.485 105H535" stroke="#828DA9" stroke-linecap="round"/>
<path d="M176.5 137L146.257 106.757C145.132 105.632 143.606 105 142.015 105H19.5" stroke="#828DA9" stroke-linecap="round"/>
<path d="M370 206L400.243 236.243C401.368 237.368 402.894 238 404.485 238H539.5" stroke="#828DA9" stroke-linecap="round"/>
<path d="M178.5 206L148.257 236.243C147.132 237.368 145.606 238 144.015 238H3.26797" stroke="#828DA9" stroke-linecap="round"/>
<path d="M327 263L357.243 293.243C358.368 294.368 359.894 295 361.485 295H516" stroke="#828DA9" stroke-linecap="round"/>
<path d="M274.127 279V315.255" stroke="#828DA9" stroke-linecap="round"/>
<path d="M273.127 66V29.7451" stroke="#828DA9" stroke-linecap="round"/>
<path d="M221.5 263L191.257 293.243C190.132 294.368 188.606 295 187.015 295H22.5" stroke="#828DA9" stroke-linecap="round"/>
<circle cx="274.5" cy="173" r="78.9846" stroke="#828DA9" stroke-width="0.969136"/>
<circle cx="329.5" cy="81" r="7" fill="#4A78ED"/>
<circle cx="7" cy="7" r="7" transform="matrix(-1 0 0 1 226 74)" fill="#4A78ED"/>
<circle cx="374.5" cy="135" r="7" fill="#4A78ED"/>
<circle cx="7" cy="7" r="7" transform="matrix(-1 0 0 1 181 128)" fill="#4A78ED"/>
<circle cx="7" cy="7" r="7" transform="matrix(1 0 0 -1 365.5 215)" fill="#4A78ED"/>
<circle cx="176" cy="208" r="7" transform="rotate(180 176 208)" fill="#4A78ED"/>
<circle cx="7" cy="7" r="7" transform="matrix(1 0 0 -1 322.5 272)" fill="#4A78ED"/>
<circle cx="7" cy="7" r="7" transform="matrix(1 0 0 -1 267.5 286)" fill="#4A78ED"/>
<circle cx="273.5" cy="66" r="7" fill="#4A78ED"/>
<circle cx="219" cy="265" r="7" transform="rotate(180 219 265)" fill="#4A78ED"/>
<path d="M274.044 172.5C274.044 177.312 279.757 181.717 276.868 185.118C273.291 189.328 267.958 192 262 192C251.23 192 242.5 183.27 242.5 172.5C242.5 161.73 251.23 153 262 153C268.66 153 274.541 156.339 278.059 161.435C280.229 164.579 274.044 168.391 274.044 172.5Z" fill="#4A78ED"/>
<path fill-rule="evenodd" clip-rule="evenodd" d="M287.235 192C298.005 192 306.735 183.27 306.735 172.5C306.735 161.73 298.005 153 287.235 153C276.466 153 267.735 161.73 267.735 172.5C267.735 183.27 276.466 192 287.235 192ZM287.235 182.824C292.937 182.824 297.559 178.202 297.559 172.5C297.559 166.798 292.937 162.176 287.235 162.176C281.534 162.176 276.912 166.798 276.912 172.5C276.912 178.202 281.534 182.824 287.235 182.824Z" fill="#C6D4FA"/>
<path d="M231.142 3.85312C230.806 2.71562 229.194 2.71562 228.858 3.85312L228.777 4.12937C228.727 4.29967 228.639 4.45658 228.521 4.58861C228.402 4.72064 228.255 4.82442 228.091 4.89236C227.927 4.9603 227.75 4.99067 227.573 4.98125C227.396 4.97182 227.223 4.92283 227.067 4.83788L226.815 4.69975C225.773 4.13262 224.633 5.27256 225.201 6.31419L225.338 6.56687C225.7 7.23312 225.357 8.06269 224.629 8.27719L224.353 8.35844C223.216 8.694 223.216 10.306 224.353 10.6416L224.629 10.7228C224.8 10.773 224.957 10.8606 225.089 10.9792C225.221 11.0979 225.324 11.2446 225.392 11.4086C225.46 11.5727 225.491 11.7498 225.481 11.9271C225.472 12.1043 225.423 12.2772 225.338 12.4331L225.2 12.685C224.633 13.7274 225.773 14.8674 226.814 14.2994L227.067 14.1621C227.223 14.0772 227.396 14.0282 227.573 14.0188C227.75 14.0093 227.927 14.0397 228.091 14.1076C228.255 14.1756 228.402 14.2794 228.521 14.4114C228.639 14.5434 228.727 14.7003 228.777 14.8706L228.858 15.1469C229.194 16.2844 230.806 16.2844 231.142 15.1469L231.223 14.8706C231.273 14.7003 231.361 14.5434 231.479 14.4114C231.598 14.2794 231.745 14.1756 231.909 14.1076C232.073 14.0397 232.25 14.0093 232.427 14.0188C232.604 14.0282 232.777 14.0772 232.933 14.1621L233.185 14.3003C234.227 14.8674 235.367 13.7274 234.799 12.6858L234.662 12.4331C234.577 12.2772 234.528 12.1043 234.519 11.9271C234.509 11.7498 234.54 11.5727 234.608 11.4086C234.676 11.2446 234.779 11.0979 234.911 10.9792C235.043 10.8606 235.2 10.773 235.371 10.7228L235.647 10.6416C236.784 10.306 236.784 8.694 235.647 8.35844L235.371 8.27719C235.2 8.22705 235.043 8.13943 234.911 8.02076C234.779 7.90208 234.676 7.75536 234.608 7.59135C234.54 7.42734 234.509 7.25021 234.519 7.07294C234.528 6.89566 234.577 6.72275 234.662 6.56687L234.8 6.315C235.367 5.27256 234.227 4.13262 233.186 4.70056L232.933 4.83788C232.777 4.92283 232.604 4.97182 232.427 4.98125C232.25 4.99067 232.073 4.9603 231.909 4.89236C231.745 4.82442 231.598 4.72064 231.479 4.58861C231.361 4.45658 231.273 4.29967 231.223 4.12937L231.142 3.85312ZM230 11.8806C229.369 11.8806 228.763 11.6298 228.317 11.1834C227.87 10.7369 227.619 10.1314 227.619 9.5C227.619 8.86862 227.87 8.2631 228.317 7.81664C228.763 7.37019 229.369 7.11938 230 7.11938C230.631 7.11938 231.236 7.3701 231.683 7.81641C232.129 8.26271 232.38 8.86802 232.38 9.49919C232.38 10.1304 232.129 10.7357 231.683 11.182C231.236 11.6283 230.631 11.879 230 11.879V11.8806Z" fill="#4A78ED"/>
<path d="M544.948 224.787L536.231 222.109C535.756 221.963 535.244 221.963 534.769 222.109L526.052 224.787C525.316 225.013 525.316 225.986 526.052 226.212L527.572 226.679C527.238 227.091 527.033 227.594 527.013 228.145C526.712 228.317 526.5 228.628 526.5 229C526.5 229.337 526.678 229.62 526.933 229.802L526.135 233.392C526.066 233.704 526.303 234 526.623 234H528.377C528.697 234 528.934 233.704 528.865 233.392L528.067 229.802C528.323 229.62 528.5 229.337 528.5 229C528.5 228.638 528.298 228.336 528.011 228.16C528.034 227.691 528.274 227.276 528.657 227.013L534.769 228.891C535.052 228.977 535.595 229.086 536.231 228.891L544.948 226.212C545.684 225.986 545.684 225.014 544.948 224.787ZM536.525 229.847C535.633 230.12 534.873 229.969 534.475 229.847L529.943 228.454L529.5 232C529.5 233.105 532.186 234 535.5 234C538.814 234 541.5 233.105 541.5 232L541.057 228.454L536.525 229.847Z" fill="#4A78ED"/>
<path d="M30 280H28.5V279C28.5 278.867 28.4473 278.74 28.3536 278.646C28.2598 278.553 28.1326 278.5 28 278.5H19C18.8674 278.5 18.7402 278.553 18.6464 278.646C18.5527 278.74 18.5 278.867 18.5 279V280H17C16.7348 280 16.4804 280.105 16.2929 280.293C16.1054 280.48 16 280.735 16 281V282C16 282.663 16.2634 283.299 16.7322 283.768C16.9644 284 17.24 284.184 17.5433 284.31C17.8466 284.435 18.1717 284.5 18.5 284.5H18.7281C19.0227 285.433 19.5842 286.26 20.3434 286.878C21.1027 287.495 22.0262 287.877 23 287.976V289.5H21.5C21.3674 289.5 21.2402 289.553 21.1464 289.646C21.0527 289.74 21 289.867 21 290C21 290.133 21.0527 290.26 21.1464 290.354C21.2402 290.447 21.3674 290.5 21.5 290.5H25.5C25.6326 290.5 25.7598 290.447 25.8536 290.354C25.9473 290.26 26 290.133 26 290C26 289.867 25.9473 289.74 25.8536 289.646C25.7598 289.553 25.6326 289.5 25.5 289.5H24V287.974C25.9963 287.772 27.6525 286.371 28.255 284.5H28.5C29.163 284.5 29.7989 284.237 30.2678 283.768C30.7366 283.299 31 282.663 31 282V281C31 280.735 30.8946 280.48 30.7071 280.293C30.5196 280.105 30.2652 280 30 280ZM18.5 283.5C18.1022 283.5 17.7206 283.342 17.4393 283.061C17.158 282.779 17 282.398 17 282V281H18.5V283C18.5 283.167 18.5081 283.333 18.5244 283.5H18.5ZM30 282C30 282.398 29.842 282.779 29.5607 283.061C29.2794 283.342 28.8978 283.5 28.5 283.5H28.4688C28.4892 283.315 28.4997 283.13 28.5 282.944V281H30V282Z" fill="#4A78ED"/>
<path d="M229.567 334.5C229.567 334.385 229.612 334.275 229.694 334.194C229.775 334.112 229.885 334.067 230 334.067C230.115 334.067 230.225 334.112 230.306 334.194C230.388 334.275 230.433 334.385 230.433 334.5C230.433 334.615 230.388 334.725 230.306 334.806C230.225 334.888 230.115 334.933 230 334.933C229.885 334.933 229.775 334.888 229.694 334.806C229.612 334.725 229.567 334.615 229.567 334.5Z" fill="#4A78ED"/>
<path fill-rule="evenodd" clip-rule="evenodd" d="M230 331.467C229.196 331.467 228.424 331.786 227.855 332.355C227.286 332.924 226.967 333.696 226.967 334.5C226.967 335.304 227.286 336.076 227.855 336.645C228.424 337.214 229.196 337.533 230 337.533C230.804 337.533 231.576 337.214 232.145 336.645C232.714 336.076 233.033 335.304 233.033 334.5C233.033 333.696 232.714 332.924 232.145 332.355C231.576 331.786 230.804 331.467 230 331.467ZM230 333.2C229.655 333.2 229.325 333.337 229.081 333.581C228.837 333.825 228.7 334.155 228.7 334.5C228.7 334.845 228.837 335.175 229.081 335.419C229.325 335.663 229.655 335.8 230 335.8C230.345 335.8 230.675 335.663 230.919 335.419C231.163 335.175 231.3 334.845 231.3 334.5C231.3 334.155 231.163 333.825 230.919 333.581C230.675 333.337 230.345 333.2 230 333.2Z" fill="#4A78ED"/>
<path fill-rule="evenodd" clip-rule="evenodd" d="M230 328C228.276 328 226.623 328.685 225.404 329.904C224.185 331.123 223.5 332.776 223.5 334.5C223.5 336.224 224.185 337.877 225.404 339.096C226.623 340.315 228.276 341 230 341C231.724 341 233.377 340.315 234.596 339.096C235.815 337.877 236.5 336.224 236.5 334.5C236.5 332.776 235.815 331.123 234.596 329.904C233.377 328.685 231.724 328 230 328ZM226.1 334.5C226.1 333.466 226.511 332.474 227.242 331.742C227.974 331.011 228.966 330.6 230 330.6C231.034 330.6 232.026 331.011 232.758 331.742C233.489 332.474 233.9 333.466 233.9 334.5C233.9 335.534 233.489 336.526 232.758 337.258C232.026 337.989 231.034 338.4 230 338.4C228.966 338.4 227.974 337.989 227.242 337.258C226.511 336.526 226.1 335.534 226.1 334.5Z" fill="#4A78ED"/>
<path d="M48.6733 38.3737C48.3971 38.65 47.9367 38.65 47.6604 38.3737L44.4942 35.2146L39.5004 40.2012L39.0329 39.755C38.635 39.3565 38.4114 38.8164 38.4114 38.2533C38.4114 37.6902 38.635 37.1501 39.0329 36.7516L42.0362 33.7483C42.4347 33.3504 42.9748 33.1268 43.5379 33.1268C44.101 33.1268 44.6411 33.3504 45.0396 33.7483L48.6733 37.375C48.9496 37.6512 48.9496 38.0975 48.6733 38.3737ZM49.1692 36.8721C49.7217 37.4246 49.7217 38.3241 49.1692 38.8766C48.2696 39.7762 47.3204 39.0325 47.1646 38.8766L44.5012 36.2133L40.5558 40.1587C40.4902 40.2243 40.4381 40.3021 40.4025 40.3878C40.367 40.4735 40.3487 40.5653 40.3487 40.6581C40.3487 40.7509 40.367 40.8427 40.4025 40.9284C40.4381 41.0141 40.4902 41.0919 40.5558 41.1575C40.8321 41.4337 41.2783 41.4337 41.5617 41.1575L44.8342 37.885L45.3371 38.3879L42.0646 41.6604C41.9989 41.7259 41.9468 41.8038 41.9113 41.8894C41.8757 41.9751 41.8574 42.067 41.8574 42.1598C41.8574 42.2525 41.8757 42.3444 41.9113 42.4301C41.9468 42.5158 41.9989 42.5936 42.0646 42.6591C42.3408 42.9354 42.7871 42.9354 43.0704 42.6591L46.3429 39.3866L46.8458 39.8896L43.5733 43.1621C43.5078 43.2276 43.4557 43.3055 43.4202 43.3912C43.3847 43.4769 43.3665 43.5687 43.3665 43.6614C43.3665 43.7542 43.3847 43.846 43.4202 43.9317C43.4557 44.0174 43.5078 44.0952 43.5733 44.1608C43.6389 44.2264 43.7168 44.2784 43.8024 44.3139C43.8881 44.3494 43.98 44.3677 44.0727 44.3677C44.1654 44.3677 44.2573 44.3494 44.343 44.3139C44.4286 44.2784 44.5065 44.2264 44.5721 44.1608L47.8446 40.8883L48.3475 41.3912L45.075 44.6637C45.0094 44.7293 44.9574 44.8072 44.9219 44.8928C44.8864 44.9785 44.8681 45.0704 44.8681 45.1631C44.8681 45.2558 44.8864 45.3477 44.9219 45.4334C44.9574 45.519 45.0094 45.5969 45.075 45.6625C45.2074 45.7949 45.3871 45.8693 45.5744 45.8693C45.6671 45.8693 45.7589 45.8511 45.8446 45.8156C45.9303 45.7801 46.0082 45.7281 46.0737 45.6625L51.9671 39.755C52.365 39.3565 52.5885 38.8164 52.5885 38.2533C52.5885 37.6902 52.365 37.1501 51.9671 36.7516L48.9637 33.7483C48.5726 33.3576 48.0447 33.1346 47.4919 33.1267C46.9392 33.1188 46.4051 33.3265 46.0029 33.7058L49.1692 36.8721Z" fill="#4A78ED"/>
<path fill-rule="evenodd" clip-rule="evenodd" d="M516 278.667C516 278.622 515.982 278.58 515.951 278.549C515.92 278.518 515.878 278.5 515.833 278.5H511.167C510.68 278.5 510.214 278.693 509.87 279.037C509.526 279.381 509.333 279.847 509.333 280.333V289.667C509.333 290.153 509.526 290.619 509.87 290.963C510.214 291.307 510.68 291.5 511.167 291.5H517.833C518.32 291.5 518.786 291.307 519.13 290.963C519.473 290.619 519.667 290.153 519.667 289.667V283.098C519.667 283.054 519.649 283.011 519.618 282.98C519.587 282.949 519.544 282.931 519.5 282.931H516.5C516.367 282.931 516.24 282.879 516.146 282.785C516.053 282.691 516 282.564 516 282.431V278.667ZM516.5 285.167C516.633 285.167 516.76 285.219 516.854 285.313C516.947 285.407 517 285.534 517 285.667C517 285.799 516.947 285.926 516.854 286.02C516.76 286.114 516.633 286.167 516.5 286.167H512.5C512.367 286.167 512.24 286.114 512.146 286.02C512.053 285.926 512 285.799 512 285.667C512 285.534 512.053 285.407 512.146 285.313C512.24 285.219 512.367 285.167 512.5 285.167H516.5ZM516.5 287.833C516.633 287.833 516.76 287.886 516.854 287.98C516.947 288.074 517 288.201 517 288.333C517 288.466 516.947 288.593 516.854 288.687C516.76 288.781 516.633 288.833 516.5 288.833H512.5C512.367 288.833 512.24 288.781 512.146 288.687C512.053 288.593 512 288.466 512 288.333C512 288.201 512.053 288.074 512.146 287.98C512.24 287.886 512.367 287.833 512.5 287.833H516.5Z" fill="#4A78ED"/>
<path d="M517 278.883C517 278.76 517.129 278.682 517.224 278.759C517.305 278.824 517.377 278.9 517.439 278.987L519.448 281.785C519.493 281.849 519.444 281.931 519.365 281.931H517.167C517.122 281.931 517.08 281.914 517.049 281.882C517.018 281.851 517 281.809 517 281.765V278.883Z" fill="#4A78ED"/>
<path fill-rule="evenodd" clip-rule="evenodd" d="M524.794 90.2863C524.75 90.5163 524.75 90.7925 524.75 91.3438V95.75C524.75 98.1069 524.75 99.2857 525.482 100.018C526.214 100.75 527.393 100.75 529.75 100.75H532.25C534.607 100.75 535.786 100.75 536.517 100.018C537.25 99.2857 537.25 98.1069 537.25 95.75V94.3738C537.25 92.7288 537.25 91.9057 536.769 91.3713C536.725 91.322 536.678 91.275 536.629 91.2307C536.094 90.75 535.271 90.75 533.626 90.75H533.392C532.672 90.75 532.311 90.75 531.975 90.6544C531.79 90.6017 531.613 90.5278 531.445 90.4344C531.14 90.265 530.885 90.0094 530.375 89.5L530.031 89.1563C529.86 88.985 529.775 88.9 529.685 88.825C529.298 88.5042 528.823 88.3075 528.322 88.2607C528.206 88.25 528.085 88.25 527.844 88.25C527.292 88.25 527.016 88.25 526.786 88.2938C526.292 88.387 525.838 88.627 525.483 88.9823C525.127 89.3376 524.887 89.7925 524.794 90.2863ZM531.156 93.25C531.156 93.1257 531.206 93.0065 531.294 92.9186C531.381 92.8307 531.501 92.7813 531.625 92.7813H534.75C534.874 92.7813 534.994 92.8307 535.081 92.9186C535.169 93.0065 535.219 93.1257 535.219 93.25C535.219 93.3744 535.169 93.4936 535.081 93.5815C534.994 93.6694 534.874 93.7188 534.75 93.7188H531.625C531.501 93.7188 531.381 93.6694 531.294 93.5815C531.206 93.4936 531.156 93.3744 531.156 93.25Z" fill="#4A78ED"/>
<path d="M22 89.1875C22 88.9389 22.0988 88.7004 22.2746 88.5246C22.4504 88.3488 22.6889 88.25 22.9375 88.25H26.0625C26.3111 88.25 26.5496 88.3488 26.7254 88.5246C26.9012 88.7004 27 88.9389 27 89.1875V89.8125C27 90.0611 26.9012 90.2996 26.7254 90.4754C26.5496 90.6512 26.3111 90.75 26.0625 90.75H22.9375C22.6889 90.75 22.4504 90.6512 22.2746 90.4754C22.0988 90.2996 22 90.0611 22 89.8125V89.1875Z" fill="#4A78ED"/>
<path fill-rule="evenodd" clip-rule="evenodd" d="M21.0625 89.5231C20.2763 89.5668 19.78 89.6918 19.4244 90.0481C18.875 90.5975 18.875 91.4812 18.875 93.2487V96.9987C18.875 98.7668 18.875 99.6506 19.4244 100.2C19.9731 100.749 20.8575 100.749 22.625 100.749H26.375C28.1425 100.749 29.0269 100.749 29.5756 100.2C30.125 99.65 30.125 98.7668 30.125 96.9987V93.2487C30.125 91.4812 30.125 90.5975 29.5756 90.0481C29.22 89.6918 28.7238 89.5668 27.9375 89.5231V89.8125C27.9375 90.3097 27.74 90.7867 27.3883 91.1383C27.0367 91.4899 26.5598 91.6875 26.0625 91.6875H22.9375C22.4402 91.6875 21.9633 91.4899 21.6117 91.1383C21.26 90.7867 21.0625 90.3097 21.0625 89.8125V89.5231ZM20.9062 93.5625C20.9062 93.4381 20.9556 93.3189 21.0435 93.231C21.1315 93.1431 21.2507 93.0937 21.375 93.0937H27.625C27.7493 93.0937 27.8685 93.1431 27.9565 93.231C28.0444 93.3189 28.0938 93.4381 28.0938 93.5625C28.0938 93.6868 28.0444 93.806 27.9565 93.8939C27.8685 93.9818 27.7493 94.0312 27.625 94.0312H21.375C21.2507 94.0312 21.1315 93.9818 21.0435 93.8939C20.9556 93.806 20.9062 93.6868 20.9062 93.5625ZM21.5312 95.75C21.5312 95.6256 21.5806 95.5064 21.6685 95.4185C21.7565 95.3306 21.8757 95.2812 22 95.2812H27C27.1243 95.2812 27.2435 95.3306 27.3315 95.4185C27.4194 95.5064 27.4688 95.6256 27.4688 95.75C27.4688 95.8743 27.4194 95.9935 27.3315 96.0814C27.2435 96.1693 27.1243 96.2187 27 96.2187H22C21.8757 96.2187 21.7565 96.1693 21.6685 96.0814C21.5806 95.9935 21.5312 95.8743 21.5312 95.75ZM22.1562 97.9375C22.1562 97.8131 22.2056 97.6939 22.2935 97.606C22.3815 97.5181 22.5007 97.4687 22.625 97.4687H26.375C26.4993 97.4687 26.6185 97.5181 26.7065 97.606C26.7944 97.6939 26.8438 97.8131 26.8438 97.9375C26.8438 98.0618 26.7944 98.181 26.7065 98.2689C26.6185 98.3568 26.4993 98.4062 26.375 98.4062H22.625C22.5007 98.4062 22.3815 98.3568 22.2935 98.2689C22.2056 98.181 22.1562 98.0618 22.1562 97.9375Z" fill="#4A78ED"/>
<path d="M4.18749 227.5C4.19 228.193 4.27674 228.882 4.44583 229.554H7.14583V225.604H4.40833C4.26446 226.226 4.19039 226.862 4.18749 227.5Z" fill="#4A78ED"/>
<path d="M7.85418 225.604V229.554H10.5542C10.7303 228.883 10.824 228.193 10.8333 227.5C10.8318 226.862 10.7591 226.226 10.6167 225.604H7.85418Z" fill="#4A78ED"/>
<path d="M7.50006 220.833C6.18152 220.833 4.89259 221.224 3.79626 221.957C2.69993 222.689 1.84545 223.731 1.34086 224.949C0.83628 226.167 0.704258 227.507 0.961492 228.801C1.21873 230.094 1.85367 231.282 2.78602 232.214C3.71837 233.146 4.90625 233.781 6.19946 234.039C7.49267 234.296 8.83311 234.164 10.0513 233.659C11.2695 233.155 12.3106 232.3 13.0432 231.204C13.7757 230.108 14.1667 228.819 14.1667 227.5C14.1667 225.732 13.4643 224.036 12.2141 222.786C10.9639 221.536 9.26817 220.833 7.50006 220.833ZM12.5917 230.296H11.0834C10.7982 231.189 10.3765 232.032 9.83339 232.796C9.43241 232.97 9.01311 233.099 8.58339 233.179C9.35327 232.343 9.94574 231.359 10.3251 230.288H7.85839V233.267H7.15423V230.296H4.67506C5.05388 231.369 5.64637 232.354 6.41673 233.192C5.99586 233.112 5.58505 232.986 5.19173 232.817C4.64665 232.046 4.22493 231.196 3.94173 230.296H2.40839C2.27536 230.053 2.15979 229.801 2.06256 229.542H3.72923C3.57306 228.872 3.492 228.187 3.48756 227.5C3.48816 226.863 3.55519 226.228 3.68756 225.604H1.98339C2.07117 225.346 2.17699 225.094 2.30006 224.85H3.88756C4.18572 223.858 4.64765 222.923 5.25423 222.083C5.6392 221.924 6.0401 221.807 6.45006 221.733C5.62085 222.623 4.99525 223.682 4.61673 224.838H7.15423V221.667H7.85839V224.85H10.3959C10.0181 223.696 9.39392 222.639 8.56673 221.75C8.97606 221.818 9.37694 221.93 9.76256 222.083C10.3656 222.917 10.826 223.845 11.1251 224.829H12.6959C12.819 225.073 12.9248 225.325 13.0126 225.583H11.3209C11.4561 226.213 11.5246 226.856 11.5251 227.5C11.5229 228.192 11.4433 228.881 11.2876 229.554H12.9542C12.8511 229.81 12.7299 230.058 12.5917 230.296Z" fill="#4A78ED"/>
</svg>
