<svg width="18" height="18" viewBox="0 0 18 18" fill="none" xmlns="http://www.w3.org/2000/svg">
<path d="M17.6416 15.9112L15.4772 13.7452C18.3213 9.94456 17.5458 4.55797 13.7452 1.71394C9.94455 -1.1301 4.55797 -0.354623 1.71394 3.446C-1.1301 7.24662 -0.354623 12.6332 3.446 15.4772C6.49897 17.7618 10.6922 17.7618 13.7452 15.4772L15.9112 17.6433C16.389 18.1211 17.1638 18.1211 17.6416 17.6433C18.1195 17.1654 18.1195 16.3906 17.6416 15.9128L17.6416 15.9112ZM8.62727 14.7433C5.24946 14.7433 2.51124 12.0051 2.51124 8.62728C2.51124 5.24946 5.24946 2.51124 8.62727 2.51124C12.0051 2.51124 14.7433 5.24946 14.7433 8.62728C14.7397 12.0036 12.0036 14.7397 8.62727 14.7433Z" fill="#828DA9"/>
</svg>
